<svg width="384" height="107" viewBox="0 0 384 107" fill="none" xmlns="http://www.w3.org/2000/svg">
<path d="M86.9438 106.563C86.037 106.563 85.1437 106.342 84.3414 105.919L55.8675 90.9486L27.3936 105.919C26.4711 106.405 25.4312 106.622 24.3914 106.548C23.3517 106.473 22.3536 106.109 21.5101 105.496C20.6665 104.884 20.0112 104.047 19.6182 103.082C19.2253 102.116 19.1103 101.06 19.2863 100.033L24.7257 68.3233L1.68598 45.8672C0.939707 45.1396 0.411954 44.2176 0.162417 43.2056C-0.0871206 42.1936 -0.0484834 41.132 0.273959 40.1409C0.596401 39.1497 1.18978 38.2685 1.98697 37.5971C2.78416 36.9256 3.75335 36.4906 4.78489 36.3413L36.6196 31.7148L50.8592 2.86451C51.3724 1.99226 52.1044 1.26913 52.9829 0.76671C53.8613 0.264291 54.8558 0 55.8678 0C56.8798 0 57.8742 0.264291 58.7527 0.76671C59.6311 1.26913 60.3632 1.99226 60.8763 2.86451L75.116 31.7148L106.951 36.3413C107.982 36.4906 108.951 36.9256 109.749 37.5971C110.546 38.2685 111.139 39.1497 111.462 40.1409C111.784 41.132 111.823 42.1936 111.573 43.2056C111.324 44.2176 110.796 45.1396 110.05 45.8672L87.0098 68.3233L92.4492 100.033C92.5865 100.834 92.547 101.656 92.3337 102.441C92.1203 103.226 91.7382 103.955 91.214 104.577C90.6897 105.199 90.0361 105.699 89.2986 106.042C88.5611 106.385 87.7572 106.563 86.9438 106.563Z" fill="url(#paint0_linear_1106_36)"/>
<path d="M222.944 106.563C222.037 106.563 221.144 106.342 220.341 105.919L191.868 90.9486L163.394 105.919C162.471 106.405 161.431 106.622 160.391 106.548C159.352 106.473 158.354 106.109 157.51 105.496C156.667 104.884 156.011 104.047 155.618 103.082C155.225 102.116 155.11 101.06 155.286 100.033L160.726 68.3233L137.686 45.8672C136.94 45.1396 136.412 44.2176 136.162 43.2056C135.913 42.1936 135.952 41.132 136.274 40.1409C136.596 39.1497 137.19 38.2685 137.987 37.5971C138.784 36.9256 139.753 36.4906 140.785 36.3413L172.62 31.7148L186.859 2.86451C187.372 1.99226 188.104 1.26913 188.983 0.76671C189.861 0.264291 190.856 0 191.868 0C192.88 0 193.874 0.264291 194.753 0.76671C195.631 1.26913 196.363 1.99226 196.876 2.86451L211.116 31.7148L242.951 36.3413C243.982 36.4906 244.951 36.9256 245.749 37.5971C246.546 38.2685 247.139 39.1497 247.462 40.1409C247.784 41.132 247.823 42.1936 247.573 43.2056C247.324 44.2176 246.796 45.1396 246.05 45.8672L223.01 68.3233L228.449 100.033C228.586 100.834 228.547 101.656 228.334 102.441C228.12 103.226 227.738 103.955 227.214 104.577C226.69 105.199 226.036 105.699 225.299 106.042C224.561 106.385 223.757 106.563 222.944 106.563Z" fill="url(#paint1_linear_1106_36)"/>
<path d="M358.944 106.563C358.037 106.563 357.144 106.342 356.341 105.919L327.868 90.9486L299.394 105.919C298.471 106.405 297.431 106.622 296.391 106.548C295.352 106.473 294.354 106.109 293.51 105.496C292.667 104.884 292.011 104.047 291.618 103.082C291.225 102.116 291.11 101.06 291.286 100.033L296.726 68.3233L273.686 45.8672C272.94 45.1396 272.412 44.2176 272.162 43.2056C271.913 42.1936 271.952 41.132 272.274 40.1409C272.596 39.1497 273.19 38.2685 273.987 37.5971C274.784 36.9256 275.753 36.4906 276.785 36.3413L308.62 31.7148L322.859 2.86451C323.372 1.99226 324.104 1.26913 324.983 0.76671C325.861 0.264291 326.856 0 327.868 0C328.88 0 329.874 0.264291 330.753 0.76671C331.631 1.26913 332.363 1.99226 332.876 2.86451L347.116 31.7148L378.951 36.3413C379.982 36.4906 380.951 36.9256 381.749 37.5971C382.546 38.2685 383.139 39.1497 383.462 40.1409C383.784 41.132 383.823 42.1936 383.573 43.2056C383.324 44.2176 382.796 45.1396 382.05 45.8672L359.01 68.3233L364.449 100.033C364.586 100.834 364.547 101.656 364.334 102.441C364.12 103.226 363.738 103.955 363.214 104.577C362.69 105.199 362.036 105.699 361.299 106.042C360.561 106.385 359.757 106.563 358.944 106.563Z" fill="url(#paint2_linear_1106_36)"/>
<defs>
<linearGradient id="paint0_linear_1106_36" x1="92.5" y1="0.499999" x2="25.5" y2="124.5" gradientUnits="userSpaceOnUse">
<stop stop-color="#FDF534"/>
<stop offset="1" stop-color="#FFA800"/>
</linearGradient>
<linearGradient id="paint1_linear_1106_36" x1="228.5" y1="0.499999" x2="161.5" y2="124.5" gradientUnits="userSpaceOnUse">
<stop stop-color="#FDF534"/>
<stop offset="1" stop-color="#FFA800"/>
</linearGradient>
<linearGradient id="paint2_linear_1106_36" x1="364.5" y1="0.499999" x2="297.5" y2="124.5" gradientUnits="userSpaceOnUse">
<stop stop-color="#FDF534"/>
<stop offset="1" stop-color="#FFA800"/>
</linearGradient>
</defs>
</svg>
