<svg width="2255" height="1940"  
opacity="0.05"

 viewBox="0 0 2255 940" fill="none" xmlns="http://www.w3.org/2000/svg">
<path d="M595.926 -4.33343C602.499 -4.33343 609.066 -4.33343 615.639 -4.33343C625.41 1.23607 628.065 11.6842 632.838 20.3181C652.311 55.5587 671.239 91.1 682.086 129.983C689.382 156.12 693.126 182.844 696.852 209.582C698.397 220.67 699.858 231.762 702.282 242.727C706.102 259.98 717.226 270.922 733.735 277.544C744.789 281.981 756.379 284.773 767.785 288.133C797.509 296.89 825.457 308.719 847.302 330.95C859.47 343.34 868.264 358.121 878.144 372.118C881.179 376.414 884.345 380.559 888.404 384.018C895.663 390.203 900.76 390.062 907.821 383.417C913.98 377.621 917.254 370.186 920.05 362.6C926.077 346.249 928.37 329.169 930.338 312.028C935.153 270.156 933.894 227.682 943.069 186.27C949.421 157.605 959.573 130.364 981.893 109.096C1002.33 89.6101 1027.86 79.5568 1055.6 74.5043C1088.16 68.5776 1120.95 69.5176 1153.63 73.4233C1177 76.2198 1200.32 79.5803 1223.82 80.8446C1236.62 81.5308 1249.51 79.8952 1261.64 75.3973C1274.44 70.655 1281.35 60.8602 1284.28 48.4146C1287.13 36.2933 1287.8 24.0216 1285.88 11.6324C1285 6.02063 1283.72 0.0986657 1289.29 -4.33343C1301.24 -4.33343 1313.18 -4.33343 1325.13 -4.33343C1328.9 -1.62623 1330.7 1.95517 1331.63 6.45307C1335.96 27.2835 1340.6 48.0621 1347.53 68.2674C1356.49 94.3712 1368.64 102.718 1401.09 105.275C1435.33 107.973 1469.67 106.483 1503.95 107.23C1530.58 107.809 1557.03 110.821 1581.81 121.039C1609.88 132.615 1628.41 154.498 1628.63 186.167C1628.96 233.726 1611.71 274.123 1577.15 307.92C1560.2 324.497 1542.22 339.989 1524.42 355.71C1505.67 372.282 1491.47 391.909 1487.89 417.247C1485.85 431.69 1489.19 445.339 1493.85 458.64C1511.23 508.178 1547.85 535.419 1601.04 543.245C1625.86 546.901 1650.91 547.179 1675.9 548.246C1699.21 549.237 1722.31 551.376 1744.8 557.664C1771.7 565.189 1791.82 582.02 1809.14 602.281C1828.77 625.26 1842.42 651.923 1857.95 677.397C1873.9 703.552 1893.42 726.949 1914.55 749.302C1932.52 768.309 1949.34 788.199 1953.6 814.768C1956.54 833.159 1954.16 851.424 1950.68 869.533C1946.67 890.457 1945.35 911.635 1943.87 932.8C1943.58 936.879 1943.5 940.884 1939.66 943.619C1928.91 943.619 1918.16 943.619 1907.41 943.619C1901.92 938.886 1902.23 932.287 1901.52 926.116C1898.66 901.319 1896.23 876.47 1891.94 851.847C1888.14 830.123 1881.09 809.443 1868.71 790.789C1845.27 755.473 1828.93 717.008 1813.32 678.13C1804.69 656.637 1792.9 636.822 1776.85 619.305C1754.8 595.25 1726.61 584.182 1694.43 580.6C1672.79 578.199 1651.09 577.263 1629.3 576.939C1608.14 576.624 1587.08 574.692 1566.52 569.02C1524.87 557.523 1494.99 531.955 1473.53 496.781C1458.96 472.895 1448.01 447.478 1443.78 419.757C1439.42 391.256 1448.75 367.935 1471.56 349.248C1494.46 330.471 1519.84 314.641 1540.9 293.609C1567.02 267.529 1580.58 237.369 1576.95 200.869C1574.61 177.514 1559.25 163.348 1539.1 153.135C1526.24 146.616 1511.9 144.093 1497.63 143.261C1473.19 141.841 1448.77 142.025 1424.91 149.169C1400.28 156.548 1385.83 171.846 1381.23 196.446C1376.05 224.124 1378.12 251.976 1377.81 279.777C1377.65 293.299 1376.47 306.684 1374.38 320.028C1371.23 340.158 1361.69 357.609 1349.27 373.669C1330.37 398.095 1311.27 422.455 1297.43 449.95C1281.55 481.482 1267.41 513.743 1257.78 547.682C1251.33 570.411 1246.65 593.507 1241.47 616.508C1236.4 638.993 1230.02 661.083 1218.28 681.392C1200.42 712.313 1173.93 733.364 1139.69 745.909C1123.51 751.835 1106.94 756.667 1090.87 762.843C1062.09 773.902 1053.78 785.13 1057.22 814.797C1062 856.072 1080.53 891.073 1114.7 917.327C1130.5 929.467 1149.38 931.77 1168.94 930.224C1205.31 927.347 1237.77 912.105 1271.3 900.214C1319.73 883.041 1367.97 865.369 1416.36 848.073C1461.41 831.966 1505.66 833.023 1549.58 851.706C1582.63 865.773 1615.49 880.15 1644.11 901.935C1655.7 910.757 1665.29 921.256 1673.06 933.335C1675.14 936.564 1677.29 939.765 1674.5 943.619C1661.95 943.619 1649.42 943.619 1636.87 943.619C1621.16 933.302 1607.8 919.964 1590.95 911.062C1566.32 898.043 1541.04 886.636 1513.93 879.135C1484.22 870.91 1454.78 873.171 1425.87 881.734C1369.46 898.442 1313.25 915.786 1258.77 937.842C1250.75 941.095 1241.95 941.109 1233.75 943.619C1187.17 943.619 1140.59 943.619 1094 943.619C1075.17 936.188 1066.06 919.771 1056.62 904.383C1031.98 864.175 1012.98 821.452 998.571 776.849C994.85 765.329 991.204 753.809 988.804 741.961C986.239 729.313 992.867 720.374 1006.3 721.027C1029.85 722.169 1053.4 722.86 1076.95 722.235C1104.14 721.511 1130.46 716.082 1154.09 702.716C1184.31 685.627 1199.48 658.108 1208.14 626.547C1215.47 599.889 1219.59 572.549 1227.23 545.952C1239.83 502.077 1258.07 460.299 1276.81 418.648C1290.1 389.094 1307.23 361.406 1321.13 332.154C1331.6 310.125 1336.91 286.879 1338.41 263.04C1340.21 234.351 1337.71 205.841 1332.38 177.387C1327.43 151.025 1311.57 137.461 1285.26 132.657C1259.17 127.892 1233 123.577 1206.93 118.708C1177.65 113.237 1148.37 107.423 1118.58 105.388C1082.31 102.916 1047.67 108.25 1017.24 129.236C999.026 141.804 990.227 160.326 984.035 180.066C977.27 201.625 975.01 223.927 974.635 246.388C973.991 284.858 977.129 323.257 976.589 361.745C976.082 397.902 972.929 433.923 971.745 470C970.778 499.445 967.813 528.877 970.411 558.553C972.38 581.066 971.835 603.828 974.588 626.364C977.543 650.574 980.169 674.84 985.914 698.636C989.593 713.897 981.794 724.937 966.808 723.043C947.349 720.585 927.609 718.512 909.211 711.157C882.668 700.544 864.873 681.65 854.584 656.12C846.466 635.971 841.411 614.953 837.202 593.798C830.108 558.134 819.401 523.5 805.552 489.792C796.978 468.928 790.199 447.506 782.687 426.313C779.685 417.844 776.026 409.708 771.685 401.836C763.468 386.946 747.645 379.088 730.611 382.481C694.376 389.71 658.479 398.344 622.794 407.767C597.166 414.535 580.785 430.492 571.478 454.184C565.756 468.74 561.068 483.559 557.587 498.684C547.815 541.172 532.105 581.827 516.607 622.529C507.15 647.354 499.718 672.8 490.73 697.757C486.625 709.145 482.194 720.388 475.645 730.793C462.626 751.488 443.222 759.534 418.85 757.71C389.454 755.516 361.289 747.991 333.751 738.309C296.475 725.205 259.379 711.679 223.441 695.318C199.202 684.278 177.287 670.229 157.676 652.712C140.815 637.649 125.984 620.715 109.976 604.862C88.3309 583.43 61.7454 572.841 31.7075 568.46C22.8501 567.168 13.8625 567.21 5.06624 565.476C1.476 564.766 -1.91366 563.944 -4.27197 560.987C-4.27197 548.349 -4.27197 535.711 -4.27197 523.072C-1.01298 519.388 3.16487 517.935 8.13036 517.113C23.0879 514.641 38.1946 512.356 52.3707 506.961C80.786 496.155 85.7423 486.215 78.9717 458.584C72.8311 433.518 59.2466 411.4 44.1094 390.302C32.7346 374.454 20.1216 359.649 4.03637 347.908C0.0972733 345.032 -2.1469 341.037 -4.27197 336.929C-4.27197 320.267 -4.27197 303.606 -4.27197 286.944C-0.666505 284.303 2.93419 285.125 6.6617 286.785C16.7888 291.292 25.5112 297.67 33.7391 304.847C55.1246 323.496 71.8191 345.826 88.5489 368.221C101.569 385.649 114.103 403.673 132.324 416.754C153.096 431.662 176.109 439.06 202.501 436.931C241.755 433.763 279.148 422.756 316.795 412.914C373.803 398.01 429.874 380.108 485.929 362.224C518.34 351.88 547.096 335.528 571.76 312.461C584.562 300.485 598.472 289.614 611.378 277.685C651.239 240.837 664.535 195.999 655.524 144.262C649.689 110.755 636.441 79.9046 619.726 50.1724C611.645 35.7951 603.076 21.6435 596.034 6.73507C594.31 3.08317 592.065 -0.611035 595.926 -4.33343Z" stroke="#40FDFB" stroke-width="2"/>
<path d="M-4.27197 560.987C24.6369 562.9 53.3295 565.316 79.9714 578.105C102.281 588.816 118.302 606.38 134.342 623.601C160.722 651.928 190.039 675.874 226.299 691.962C266.473 709.785 307.642 725.031 349.378 738.943C372.553 746.67 396.377 752.62 420.904 753.621C447.519 754.712 463.586 747.432 477.839 717.878C486.775 699.351 492.29 679.587 498.618 660.129C512.613 617.105 531.349 575.628 544.024 532.181C549.746 512.558 554.749 492.743 560.119 473.022C563.774 459.604 569.392 446.918 576.529 434.924C588.09 415.489 607.535 406.7 628.788 401.582C662.933 393.366 696.899 384.361 731.499 377.96C747.335 375.032 766.287 383.482 774.076 397.145C777.087 402.433 780.531 407.678 782.372 413.36C798.778 464.069 821.995 512.591 835.013 564.367C842.163 592.806 846.842 621.791 856.778 649.61C869.984 686.59 896.706 707.684 936.408 714.221C945.813 715.772 955.19 717.469 964.595 719.001C977.322 721.079 985.069 713.319 982.175 701.376C976.006 675.93 973.192 650.019 970.153 624.108C966.305 591.293 964.666 558.294 965.493 525.432C966.244 495.427 967.273 465.352 969.763 435.323C973.503 390.123 973.615 344.665 971.675 299.371C969.96 259.402 968.217 219.603 979.333 180.602C991.951 136.338 1017.9 114.53 1067.44 104.213C1103.01 96.8012 1138.09 102.422 1173.05 108.302C1210.06 114.52 1246.91 121.664 1283.87 128.174C1295.5 130.223 1306.45 134.053 1316.38 139.895C1328.22 146.856 1332.44 159.123 1335.12 171.113C1345.55 217.953 1347.6 264.939 1333.86 311.591C1328.81 328.765 1320.53 344.759 1311.79 360.476C1277.16 422.676 1248.4 487.225 1229.15 555.404C1222.44 579.195 1218.4 603.673 1212.24 627.624C1206.28 650.715 1196.11 671.729 1178.54 689.372C1159.62 708.379 1135.91 717.671 1110.17 722.62C1079.25 728.566 1047.9 727.541 1016.62 724.942C1013.05 724.651 1009.45 724.627 1005.88 724.782C995.728 725.224 990.749 731.409 992.971 740.833C1001.2 775.664 1013.55 809.166 1028.58 841.761C1041.9 870.647 1055.65 899.368 1076.07 924.462C1081.56 931.211 1088 937.25 1094 943.619C1082.06 943.619 1070.12 943.619 1058.17 943.619C1047.7 939.774 1043.8 930.327 1038.63 922.084C1022.63 896.506 1010.47 868.87 993.985 843.57C981.503 824.422 969.645 804.701 949.989 790.925C934.087 779.782 916.282 772.675 897.918 766.514C885.548 762.363 872.897 759.069 861.471 752.432C835.248 737.195 823.498 712.901 815.699 686.064C806.703 655.114 799.675 623.634 788.555 593.262C776.514 560.395 760.311 529.85 732.73 506.336C713.271 489.745 690.453 478.737 664.29 477.562C636.756 476.326 614.624 487.841 598.595 509.588C586.122 526.513 576.458 544.993 567.213 563.647C551.287 595.786 536.103 628.272 527.384 663.066C522.352 683.135 518.707 703.402 517.518 724.171C515.517 759.153 529.845 787.17 554.754 811.239C569.5 825.484 583.472 840.332 595.414 856.918C612.421 880.54 618.89 907.462 622.756 935.281C623.24 938.787 621.863 941.41 619.219 943.619C606.68 943.619 594.136 943.619 581.593 943.619C575.758 939.187 574.682 932.419 572.545 926.238C566.325 908.266 556.816 892.436 542.163 879.422C525.279 864.419 504.754 862.06 486.033 875.098C464.05 890.41 444.123 908.059 426.705 928.179C421.314 934.407 415.073 939.567 407.806 943.619C397.056 943.619 386.306 943.619 375.556 943.619C372.699 938.74 376.254 935.53 378.838 932.104C395.464 910.047 412.535 888.229 424.101 863.141C429.417 851.607 434.701 839.862 430.623 826.683C427.3 815.939 421.654 806.896 411.637 800.49C382.104 781.601 349.237 769.465 316.74 756.54C277.049 740.753 236.061 728.368 195.884 713.855C165.264 702.791 138.894 685.457 114.674 664.688C89.6862 643.265 64.0464 622.788 32.0037 611.428C23.2988 608.34 14.4316 605.938 5.45236 603.832C1.2567 602.85 -2.5075 601.403 -4.27197 597.182C-4.27197 585.117 -4.27197 573.052 -4.27197 560.987Z" stroke="#40FDFB" stroke-width="2"/>
<path d="M1674.5 943.619C1663.66 923.87 1648.27 908.002 1628.83 896.078C1595 875.328 1559.38 858.196 1520.86 846.639C1488.66 836.976 1457.01 839.016 1426.03 849.694C1371.82 868.386 1318.03 888.197 1264.05 907.476C1238.34 916.655 1213.24 927.62 1185.97 932.278C1169.4 935.107 1152.89 936.085 1136.32 932.174C1116.35 927.46 1101.97 914.813 1089.84 900.13C1067.22 872.757 1053.94 841.46 1051.31 806.294C1049.88 787.118 1062.17 769.531 1082.56 761.447C1104.63 752.705 1127.71 746.614 1149.54 737.195C1182.12 723.147 1205.02 700.074 1219.82 669.238C1235.14 637.325 1239.53 602.531 1247.66 568.761C1256.06 533.911 1269.01 500.71 1283.77 467.988C1299.71 432.658 1322.18 401.366 1346.11 370.811C1361.31 351.4 1369.98 329.677 1372.07 304.992C1374.28 278.851 1372.75 252.78 1373.46 226.69C1373.8 214.597 1375.45 202.645 1378.02 190.89C1383.42 166.22 1399.92 151.227 1424.77 145.023C1463.12 135.44 1501.6 134.359 1539 148.595C1562.57 157.572 1582.25 181.862 1581.95 209.493C1581.57 244.019 1568.43 271.613 1544.38 295.926C1525.75 314.764 1504.18 330.123 1482.65 345.488C1451.91 367.427 1440.7 395.496 1450.35 431.441C1454.92 448.516 1461.13 464.929 1469.27 480.613C1485.19 511.261 1506.64 537.28 1538.75 553.735C1559.31 564.273 1581.48 569.349 1604.62 571.398C1637.82 574.34 1671.24 572.808 1704.4 577.71C1748.84 584.28 1779.03 608.645 1801.14 644.426C1813.4 664.265 1821.69 685.829 1829.98 707.35C1840.31 734.121 1853.85 759.341 1869.43 783.537C1883.79 805.838 1893.07 829.714 1896.93 855.715C1901.28 884.93 1904.88 914.211 1907.41 943.619C1894.87 943.619 1882.33 943.619 1869.79 943.619C1867.28 941.226 1864.65 939.173 1863.83 935.37C1855.2 895.157 1836.05 859.987 1809.17 828.248C1788.63 803.987 1779.36 775.538 1779.64 744.33C1779.87 719.203 1778.26 694.275 1768.92 670.591C1757.1 640.61 1735.37 620.273 1702.85 611.399C1684.93 606.502 1666.56 604.801 1648.01 604.702C1623.56 604.57 1599.11 605.374 1574.81 601.482C1546.29 596.909 1521.89 584.436 1499.96 566.82C1471.6 544.044 1451.26 515.054 1431.57 485.543C1421.42 470.329 1411.41 455.035 1397.58 442.449C1384.73 430.746 1369.84 429.044 1354.37 438.204C1341.71 445.696 1331.87 456.158 1323.13 467.42C1301.91 494.727 1289.38 526.019 1279.24 558.336C1270.17 587.232 1265.36 617.105 1257.39 646.255C1250.11 672.875 1239.47 697.894 1222.15 720.106C1204.41 742.863 1181.31 759.2 1155.82 772.868C1143.31 779.58 1130.72 786.192 1119.65 795.061C1106.27 805.782 1099.71 819.248 1102.91 836.153C1110.86 878.153 1145.07 900.708 1189.25 894.025C1220.16 889.343 1249.13 878.613 1278.54 869.152C1326.71 853.656 1372.69 832.896 1419.93 815.159C1442.27 806.769 1465.44 800.903 1489.71 801.858C1514.2 802.816 1537.18 810.167 1559.46 819.412C1593.43 833.512 1627.33 847.762 1659.56 865.406C1687.67 880.789 1705.35 904.134 1716.72 932.579C1718.26 936.432 1719.73 940.254 1715.7 943.619C1701.97 943.619 1688.23 943.619 1674.5 943.619Z" stroke="#40FDFB" stroke-width="2"/>
<path d="M1977.28 -4.33343C1985.05 -4.33343 1992.81 -4.33343 2000.57 -4.33343C2004.71 -1.41943 2006.48 2.40163 2006.58 7.42593C2006.8 18.3534 2008.93 29.0365 2011.58 39.6679C2016.83 60.7662 2029.42 75.1624 2050.82 82.9926C2075.68 92.0965 2101.3 98.6764 2126.81 105.642C2147.74 111.352 2168.62 117.223 2189.49 123.14C2214.31 130.176 2226.64 146.325 2230.54 170.008C2233.67 188.982 2235.76 208.069 2238.17 227.118C2241.26 251.535 2250.74 274.174 2258.57 297.284C2258.57 309.927 2258.57 322.566 2258.57 335.204C2252.99 338.452 2249.73 334.504 2246.18 331.496C2225.01 313.56 2213.18 290.483 2206.11 264.671C2202.32 250.797 2198.78 236.861 2195.04 222.973C2186.41 190.862 2166.38 167.823 2135.79 153.352C2105.16 138.857 2072.75 130.401 2038.37 130.848C2014.27 131.163 2002.39 139.764 1994.09 161.464C1992.75 164.965 1991.58 168.523 1990.55 172.128C1985.02 191.511 1980.68 211.162 1976.31 230.803C1970.76 255.765 1964.52 280.642 1962.57 306.181C1959.73 343.307 1968.29 363.714 2005.05 378.975C2016.57 383.76 2028.51 387.515 2040.37 391.336C2077.07 403.161 2100.08 427.629 2113.88 461.625C2123 484.081 2130.08 507.285 2140.77 529.145C2164.33 577.315 2197.73 616.471 2249.68 638.457C2253.43 640.046 2255.93 642.744 2258.57 645.441C2258.57 654.635 2258.57 663.828 2258.57 673.021C2253.57 676.57 2248.77 674.159 2244.19 672.269C2226.24 664.848 2209.84 654.936 2195.17 642.523C2155.9 609.28 2127.36 568.836 2107.58 522.344C2100.48 505.645 2093.4 488.946 2084.71 472.825C2069.65 444.888 2045.12 430.088 2014.94 421.863C1995.72 416.622 1975.59 414.286 1957.26 406.31C1936.31 397.192 1924 381.809 1922.95 358.981C1921.71 331.975 1927.55 305.904 1933.85 279.88C1940.69 251.638 1947 223.297 1949.42 194.331C1950.56 180.729 1948.22 167.508 1943.06 154.691C1937.73 141.475 1926.33 135.788 1913.53 131.764C1902.69 128.362 1891.39 126.341 1880.13 125.936C1852.42 124.935 1824.75 125.17 1797.14 129.377C1758.6 135.252 1733.65 155.669 1719.81 190.482C1710.63 213.554 1702.57 236.983 1693.73 260.159C1680.62 294.577 1656.26 320.418 1628.39 343.885C1613.36 356.537 1597.09 367.798 1583.01 381.513C1572.59 391.679 1565.04 403.627 1559.32 416.721C1548.66 441.114 1563.77 469.271 1582.99 480.378C1603.19 492.052 1625.33 496.705 1648.56 498.426C1678.37 500.635 1708.12 497.208 1737.91 498.261C1748.96 498.651 1759.92 499.77 1770.85 501.072C1801.41 504.705 1823.41 521.037 1840.52 544.8C1855.18 565.161 1866.66 587.27 1879.3 608.73C1901.89 647.091 1932.91 677.989 1968.28 705.484C1996.62 727.508 2023.31 751.201 2044.97 779.782C2074.71 819.003 2077.55 870.243 2051.72 911.922C2047.29 919.071 2042.98 926.295 2038.67 933.509C2036.23 937.603 2033.3 941.029 2029.24 943.619C2013.12 943.619 1996.99 943.619 1980.87 943.619C1976.94 940.616 1977.47 936.837 1978.35 932.663C1981.86 916.18 1989.29 901.122 1996.2 885.861C2001.8 873.495 2007.09 861.148 2009.36 847.589C2012.54 828.727 2008.18 811.328 1998.89 795.329C1985.71 772.609 1968.02 753.18 1947.34 736.297C1911.62 707.138 1880.25 674.365 1856.04 635.468C1843.48 615.291 1830.91 595.1 1815.41 576.718C1795.6 553.209 1770.36 539.71 1739.31 535.772C1718.58 533.144 1697.75 532.689 1676.86 532.063C1648.91 531.227 1620.78 530.837 1593.47 523.448C1560.52 514.532 1534.67 497.617 1520.82 466.108C1511.08 443.962 1510.7 422.347 1521.09 400.304C1532.03 377.071 1550.86 360.335 1570.03 343.89C1597.01 320.737 1623.93 297.665 1642.12 266.838C1653.3 247.883 1659.8 227.254 1666 206.617C1674.37 178.755 1680.45 150.329 1684.98 121.627C1685.98 115.319 1688.08 109.392 1691.64 103.936C1695.93 97.3463 1701.99 93.7884 1710.06 93.4923C1735.14 92.5617 1760.08 95.3065 1785.1 96.1572C1810.74 97.0267 1836.39 97.5249 1862.03 95.7812C1880.16 94.5498 1898.39 94.6439 1916.39 91.6876C1920.22 91.0625 1924.06 90.4467 1927.82 89.6007C1946.92 85.3284 1959.56 74.5325 1964.27 55.7889C1968.22 40.1097 1970.13 24.1674 1971.26 8.12157C1971.62 3.10197 1971.8 -1.72963 1977.28 -4.33343Z" stroke="#40FDFB" stroke-width="2"/>
<path d="M1715.7 943.619C1707.3 916.932 1694.36 892.558 1669.57 877.006C1625.13 849.125 1576.5 829.282 1526.56 812.475C1490.12 800.213 1454.56 806.149 1420.08 819.666C1359.03 843.603 1298.49 868.739 1235.44 887.656C1212.85 894.429 1190.12 899.524 1166.12 898.936C1126.56 897.963 1091.46 856.472 1098.93 819.045C1101.41 806.614 1109.07 797.966 1118.79 790.408C1134.9 777.883 1153.83 769.71 1171.23 759.182C1213.96 733.35 1239.13 695.788 1251.93 649.615C1262.54 611.371 1268.41 571.966 1282.56 534.583C1294.61 502.773 1309.75 472.651 1334.55 448.093C1342.35 440.366 1351.08 433.049 1362.48 430.064C1377.11 426.238 1389.53 428.391 1400.83 439.506C1413.48 451.957 1424.01 465.779 1433.35 480.425C1448.68 504.465 1465.06 527.876 1485.27 548.184C1513.84 576.901 1547.76 596.218 1590.54 599.231C1612.64 600.792 1634.66 599.673 1656.68 600.721C1677.85 601.732 1699.01 603.687 1718.64 612.241C1742.44 622.604 1759.65 639.952 1770.53 662.371C1779.83 681.533 1784.42 702.725 1783.3 723.523C1780.83 769.31 1794.99 808.329 1825.56 843.269C1850.75 872.047 1862.89 906.959 1869.79 943.619C1850.67 943.619 1831.56 943.619 1812.45 943.619C1808.2 941.114 1803.44 939.662 1799.57 936.282C1793.38 930.887 1789.31 931.258 1783.58 937.048C1781.33 939.318 1778.82 941.316 1776.62 943.619C1756.32 943.619 1736.01 943.619 1715.7 943.619Z" stroke="#40FDFB" stroke-width="2"/>
<path d="M2029.24 943.619C2033 931.281 2041.25 921.186 2047.79 910.319C2073.35 867.897 2070.32 819.915 2039.89 780.209C2018.78 752.677 1993.06 729.717 1965.45 708.713C1921.93 675.606 1887.45 635.717 1862.22 588.144C1851.12 567.205 1839.13 546.615 1821.84 529.493C1805.12 512.939 1784.17 506.317 1760.87 503.981C1736.73 501.56 1712.5 501.372 1688.47 502.876C1665.01 504.348 1641.98 502.999 1619.24 498.595C1599.53 494.778 1580.43 487.954 1566.89 472.608C1546.62 449.635 1546.5 424.363 1565.16 396.421C1575.99 380.202 1591.07 368.001 1606.31 356.034C1633.65 334.565 1660.68 312.874 1678.13 282.522C1687.27 266.626 1693.4 249.495 1699.57 232.429C1706.35 213.723 1713.05 195.05 1721.62 176.955C1734.7 149.338 1756.93 133.278 1787.11 127.285C1824.81 119.808 1862.88 118.614 1900.91 124.71C1941.57 131.229 1952.34 148.402 1953.66 186.393C1954.56 212.266 1947.83 237.604 1942.34 262.871C1937.21 286.446 1930.33 309.683 1927.9 333.775C1926.83 344.388 1926.14 355.047 1927.97 365.528C1932.3 390.152 1950.45 401.324 1973.43 407.556C1997.77 414.155 2023.04 417.487 2045.92 429.148C2063.51 438.11 2076.16 450.979 2086.25 467.062C2096.66 483.653 2103.67 501.683 2111.14 519.477C2130.45 565.518 2158.3 605.736 2197.04 638.683C2215.1 654.043 2235.58 665.684 2258.57 673.021C2258.57 683.361 2258.57 693.701 2258.57 704.046C2254.5 708.548 2249.81 706.443 2245.36 704.986C2222.43 697.503 2202.05 685.847 2184.24 670.074C2151.34 640.925 2126.23 606.253 2106 568.08C2093.8 545.064 2082.36 521.681 2069.38 499.027C2050.34 465.798 2020.07 452.361 1982.26 451.294C1957.98 450.612 1934.19 453.451 1910.38 458.297C1882.84 463.904 1876.79 482.446 1878.25 504.348C1880.19 533.309 1888.76 560.874 1901.88 586.889C1916.06 615 1934.76 639.924 1959.74 660.51C1984.66 681.063 2011.16 699.703 2036.15 720.153C2058.03 738.055 2078.54 757.203 2093.81 780.928C2105.86 799.649 2111.15 820.408 2114 841.963C2117.75 870.379 2115.82 898.659 2111.99 926.892C2111.15 933.058 2110.87 939.657 2104.49 943.619C2079.41 943.619 2054.32 943.619 2029.24 943.619Z" stroke="#40FDFB" stroke-width="2"/>
<path d="M1977.28 -4.33343C1974.19 13.4608 1973.51 31.5088 1970.49 49.3641C1966.28 74.307 1949.36 91.4807 1923.09 94.9211C1908.03 96.8998 1892.96 98.2957 1877.78 99.2639C1850.66 100.984 1823.52 101.214 1796.4 100.665C1770.81 100.148 1745.25 98.1641 1719.65 97.4638C1699.71 96.9233 1692.14 103.348 1689.22 122.299C1684.83 150.734 1678.01 178.652 1670.82 206.518C1658.38 254.721 1633.78 295.87 1594.51 328.45C1577.79 342.32 1561.21 356.33 1546.08 371.798C1530.12 388.126 1519.17 407.354 1517.39 429.815C1516 447.393 1523.13 463.495 1532.52 478.573C1546.7 501.349 1569.24 512.347 1594.47 519.261C1612.89 524.304 1631.89 525.521 1651 526.809C1681.3 528.849 1711.75 527.434 1741.96 531.673C1781.93 537.28 1809.73 559.187 1831.54 590.212C1849.43 615.653 1864.58 642.795 1883.78 667.419C1903.42 692.592 1927.2 713.77 1951.74 734.342C1972.56 751.788 1990.76 771.646 2003.87 795.141C2020.92 825.701 2016.07 855.969 2001.09 885.978C1991.92 904.341 1983.19 922.972 1980.87 943.619C1967.13 943.619 1953.39 943.619 1939.66 943.619C1939.27 912.538 1943.72 881.875 1949.09 851.377C1954.96 818.073 1946.14 788.655 1922.45 764.713C1882.58 724.42 1852.3 678.017 1823.99 630.04C1810.76 607.635 1793.57 588.271 1770.87 573.907C1749.72 560.522 1725.68 556.621 1701.25 554.139C1663.99 550.356 1626.23 552.635 1589.21 545.496C1533.73 534.794 1493.15 493.401 1484.32 439.821C1479.85 412.702 1488.97 390.288 1505.47 369.401C1519.87 351.174 1539.55 338.297 1556.26 322.406C1576.48 303.183 1596.79 283.95 1608.46 258.523C1620.78 231.677 1627.49 203.75 1622.96 173.956C1619.43 150.828 1604.49 136.436 1584.33 126.693C1565.78 117.726 1545.29 114.854 1524.69 112.762C1494.02 109.641 1463.29 112.17 1432.62 111.042C1416.88 110.459 1401.05 109.642 1385.5 107.433C1367.25 104.848 1353.67 95.551 1346.77 78.1516C1336.17 51.4509 1330.71 23.5564 1325.13 -4.33343C1337.07 -4.33343 1349.02 -4.33343 1360.96 -4.33343C1365.28 -2.38293 1367.7 0.949347 1369.24 5.25925C1371.95 12.8497 1375.38 20.163 1378.76 27.5091C1389.73 51.3381 1410.11 63.6567 1435.02 70.0346C1451.15 74.1659 1467.77 76.375 1484.53 75.9426C1518.22 75.0684 1551.83 77.4936 1585.47 78.1751C1612.79 78.7297 1640.01 82.687 1667.26 85.2203C1680.7 86.4705 1688.3 80.7413 1689.94 68.0231C1692.1 51.2441 1693.66 34.4415 1693.74 17.4933C1693.77 9.94509 1693.41 1.87997 1699.58 -4.33343C1709.14 -4.33343 1718.69 -4.33343 1728.25 -4.33343C1733.52 -2.40173 1734.51 2.23241 1735.6 6.70211C1737.99 16.5157 1740.66 26.2776 1746 35.0196C1755.11 49.928 1768.06 60.7192 1785.38 65.7529C1823.53 76.8402 1861.79 77.2115 1899.62 64.6014C1919.1 58.106 1931.7 44.2316 1939.09 25.9298C1941.8 19.237 1944.11 12.3797 1945.6 5.34379C1946.49 1.12789 1948.4 -2.11503 1952.2 -4.33343C1960.56 -4.33343 1968.93 -4.33343 1977.28 -4.33343Z" stroke="#40FDFB" stroke-width="2"/>
<path d="M712.383 943.619C693.276 943.619 674.165 943.619 655.054 943.619C650.864 940.644 650.821 936.263 650.91 931.93C651.117 921.567 650.192 911.335 648.486 901.079C644.611 877.795 632.1 858.887 616.93 841.15C602.146 823.868 585.91 807.822 571.21 790.455C541.05 754.825 529.784 714.814 539.763 669.698C549.788 624.367 569.857 583.796 603.837 550.478C628.858 525.939 663.684 521.3 696.25 535.523C731.959 551.113 753.381 578.481 768.448 611.931C783.927 646.288 790.091 682.868 797.067 719.279C798.961 729.163 800.779 739.051 803.334 748.799C811.025 778.146 823.78 788.491 854.791 791.409C867.832 792.641 880.911 793.806 893.807 796.265C928.384 802.859 955.923 819.92 977.387 846.822C998.984 873.885 1014.29 904.416 1031.11 934.139C1032.84 937.194 1034.52 940.399 1031.3 943.619C1022.34 943.619 1013.38 943.619 1004.42 943.619C993.525 936.033 989.851 923.686 983.124 913.393C970.731 894.438 958.521 875.398 939.395 861.801C914.417 844.04 887.155 839.307 857.454 848.919C818.701 861.458 784.026 881.499 750.3 903.161C738.809 910.545 729.85 920.622 722.991 932.278C720.327 936.804 717.114 940.869 712.383 943.619Z" stroke="#40FDFB" stroke-width="2"/>
<path d="M1289.29 -4.33339C1289.25 12.22 1292.87 28.6229 1289.54 45.3643C1285.63 64.9821 1274.74 77.0706 1254.47 82.0573C1234.67 86.9265 1214.7 85.164 1195.03 82.6307C1157.48 77.7991 1119.94 72.4034 1082.01 75.1858C1044.09 77.9682 1008.25 87.6174 981.268 115.596C962.054 135.52 952.977 160.669 947.424 186.759C941.261 215.706 939.621 245.18 937.902 274.663C936.323 301.787 934.566 329.047 927.007 355.461C923.423 367.972 918.87 380.117 908.145 389.019C900.769 395.138 894.92 395.134 887.526 389.061C879.211 382.223 873.099 373.631 867.903 364.649C844.733 324.591 808.037 302.788 763.271 291.334C753.494 288.834 743.967 285.407 734.393 282.226C711.392 274.588 699.722 258.481 696.227 235.761C691.477 204.882 688.268 173.778 680.996 143.251C674.691 116.786 664.807 91.6123 652.691 67.2617C642.266 46.3091 630.7 25.8782 619.726 5.16997C618.11 2.12437 616.987 -1.16089 615.639 -4.33339C622.803 -4.33339 629.967 -4.33339 637.136 -4.33339C642.332 -2.10559 645.217 1.99279 647.772 6.73979C675.833 58.8299 700.732 112.161 719.322 168.171C728.445 195.666 743.798 219.41 771.407 233.44C789.255 242.511 808.732 247.041 828.562 250.049C835.022 251.032 841.524 251.718 848.12 251.962C866.658 252.653 879.422 243.864 888.606 229.553C898.59 213.991 903.109 196.272 908.807 179.051C916.15 156.862 924.672 135.233 936.567 114.783C954.095 84.6422 980.78 65.4569 1013.61 53.674C1049.68 40.7302 1087.39 35.5132 1125.65 32.7637C1146.43 31.2738 1167.37 31.3255 1187.98 27.8757C1203.44 25.2907 1215.23 18.0574 1220.86 3.27115C1222.03 0.211453 1224.2 -2.13379 1226.59 -4.33339C1247.49 -4.33339 1268.39 -4.33339 1289.29 -4.33339Z" stroke="#40FDFB" stroke-width="2"/>
<path d="M2258.57 921.209C2258.57 928.678 2261.6 939.065 2257.72 942.796C2253.84 946.533 2243.04 943.619 2235.28 943.619C2219.15 943.619 2203.03 943.619 2186.91 943.619C2164.48 940.296 2157.32 923.197 2151.34 905.901C2145.11 887.863 2143.59 868.847 2141.48 850.009C2139.06 828.356 2136.92 806.708 2132.09 785.309C2126.44 760.267 2111.43 741.801 2091.21 726.498C2069.37 709.963 2045.51 696.23 2022.54 681.256C2000.54 666.906 1978.42 652.609 1960.3 633.715C1939.13 611.639 1923.45 586.673 1918.55 556.193C1914.09 528.412 1927.94 501.988 1954.07 489.011C1983.18 474.554 2011.12 476.086 2037.53 494.341C2053.46 505.349 2062.63 521.916 2071.35 538.244C2090.43 573.992 2108.25 610.37 2129.68 644.92C2139.77 661.173 2150.06 677.152 2163.79 691.102C2179.41 706.946 2198.56 715.946 2219.61 722.211C2229.01 725.013 2238.56 727.381 2248.15 729.534C2252.72 730.563 2256.55 732.434 2258.57 736.791C2258.57 750.007 2258.57 763.219 2258.57 776.435C2255.89 779.753 2252.26 780.421 2248.17 779.941C2242.18 779.241 2236.2 780.045 2230.38 780.98C2215.54 783.363 2203.06 789.497 2197.26 803.949C2184.9 834.748 2186.87 864.762 2204.68 893.052C2213.89 907.664 2229.95 912.458 2246.42 915.17C2251.42 915.992 2255.57 917.219 2258.57 921.209Z" stroke="#40FDFB" stroke-width="2"/>
<path d="M230.433 -4.33338C242.975 -4.33338 255.516 -4.33338 268.058 -4.33338C276.273 3.35582 277.526 14.6264 283.54 23.5517C288.358 30.6957 293.627 37.0501 301.068 41.5715C315.587 50.3887 331.408 56.3812 348.093 59.9297C362.157 62.9189 369.482 57.4246 371.498 43.5925C373.194 31.9553 374.739 20.2899 374.973 8.53048C375.077 3.28998 376.755 -0.982281 380.931 -4.33338C401.237 -4.33338 421.542 -4.33338 441.847 -4.33338C444.256 -2.24188 447.45 -0.949455 448.918 2.10085C460.223 25.6149 478.934 44.0531 494.992 64.3101C500.789 71.6186 506.145 79.1903 511.012 87.1004C531.137 119.831 528.695 150.734 503.767 180.438C484.741 203.106 459.855 218.982 435.316 235.235C412.668 250.237 389.365 264.107 362.86 272.177C350.34 275.989 337.642 276.849 324.913 274.085C300.416 268.774 290.785 250.815 285.661 229.656C282.957 218.484 281.507 206.922 281.968 195.52C283.326 161.934 274.387 131.572 254.819 103.668C235.414 75.9943 227.878 44.5795 226.398 11.6466C226.149 6.10062 224.789 -0.0234812 230.433 -4.33338Z" stroke="#40FDFB" stroke-width="2"/>
<path d="M1031.3 943.619C1010.35 906.01 992.242 866.577 961.222 835.157C940.401 814.073 913.947 802.628 883.969 798.873C870.984 797.247 858.009 795.545 844.996 794.173C819.834 791.522 806.454 776.581 800.333 754.425C793.121 728.335 789.917 701.456 783.974 675.113C776.143 640.389 765.657 606.554 743.37 577.545C722.15 549.928 694.371 532.313 657.558 531.843C631.969 531.523 612.674 544.702 597.317 562.825C569.707 595.401 551.54 632.465 543.253 673.923C534.745 716.487 546.326 753.776 573.996 787.292C593.07 810.402 615.531 830.711 633.223 854.982C648.576 876.042 654.721 899.434 655.04 924.669C655.12 930.985 655.054 937.302 655.054 943.619C643.107 943.619 631.165 943.619 619.218 943.619C615.808 902.381 602.405 865.449 571.939 834.781C558.399 821.156 543.916 808.132 532.767 792.406C521.102 775.946 513.999 757.997 513.473 737.801C512.209 689.387 525.876 644.149 545.259 600.227C558.784 569.574 573.085 539.212 592.215 511.299C617.579 474.282 659.01 463.791 701.056 482.121C740.791 499.445 764.671 530.207 782.166 566.848C800.102 604.415 808.22 644.92 819.772 684.4C825.382 703.576 832.419 722.15 847.551 736.683C857.666 746.398 869.631 753.123 883.204 757.419C907.868 765.226 932.499 772.962 953.644 788.425C973.211 802.732 985.83 822.274 997.903 841.981C1013.34 867.183 1027.07 893.343 1041.86 918.916C1046.78 927.427 1052.7 935.398 1058.17 943.619C1049.21 943.619 1040.26 943.619 1031.3 943.619Z" stroke="#40FDFB" stroke-width="2"/>
<path d="M520.68 -4.33333C530.235 -4.33333 539.791 -4.33333 549.346 -4.33333C552.564 -2.31703 555.961 -0.705003 557.906 2.9234C571.967 29.2058 588.921 53.9654 602.015 80.7695C611.523 100.246 617.471 120.621 617.908 142.133C618.594 176.32 603.767 204.605 579.333 228.284C548.975 257.701 514.121 281.915 479.239 306.059C443.16 331.04 404.916 351.87 362.139 364.325C331.15 373.344 299.575 379.473 267.093 378.707C232.631 377.894 200.403 369.721 173.311 347.795C159.048 336.252 150.327 320.869 142.336 305.115C133.55 287.795 128.24 269.146 120.711 251.328C104.766 213.596 75.5224 189.49 37.0927 174.549C33.4997 173.153 29.7115 172.25 26.1561 170.732C20.0598 168.138 15.2969 164.505 15.5004 157.342C15.6904 150.663 20.0774 146.917 25.9948 144.727C44.0888 138.034 59.5664 127.351 74.3122 115.587C109.291 87.688 135.851 54.1111 149.492 11.8629C151.417 5.90325 152.745 -0.49343 158.768 -4.33333C166.531 -4.33333 174.295 -4.33333 182.059 -4.33333C186.386 -0.437029 184.421 4.26763 183.571 8.62453C178.16 36.3404 169.194 63.154 160.126 89.8782C151.247 116.038 150.392 141.291 162.487 166.911C174.86 193.114 183.385 220.613 188.893 248.968C191.253 261.123 195.456 272.826 200.051 284.369C212.35 315.271 237.637 330.683 269.576 337.921C303.789 345.671 336.517 338.799 368.651 327.792C403.937 315.704 434.264 295.329 464.257 274.363C489.852 256.465 515.061 238.088 538.569 217.746C561.998 197.48 579.075 173.251 582.246 142.029C583.669 128.028 579.338 114.699 575.086 101.558C568.636 81.6391 557.347 64.0046 545.931 46.4642C537.54 33.5768 529.159 20.6753 521.375 7.4354C519.186 3.713 516.588 -0.178529 520.68 -4.33333Z" stroke="#40FDFB" stroke-width="2"/>
<path d="M158.768 -4.33337C150.034 30.2727 134.631 61.7955 109.705 88.2706C88.8246 110.441 66.0665 130.782 37.7689 144.313C33.7685 146.226 29.5391 147.688 25.4714 149.479C21.9962 151.006 19.5599 153.464 19.4129 157.332C19.2503 161.619 21.8587 164.227 25.6233 165.971C26.9666 166.592 28.3147 167.245 29.7281 167.682C84.2686 184.48 117.41 220.787 133.903 272.647C139.849 291.344 148.183 309.039 159.13 325.715C173.93 348.256 196.168 360.415 221.419 367.751C268.491 381.428 314.72 373.279 360.446 360.415C407.559 347.165 448.678 322.932 487.776 295.183C518.956 273.046 550.483 251.201 577.51 224.298C600.972 200.944 615.075 173.129 613.652 139.919C612.768 119.394 606.703 99.875 597.481 81.2113C582.988 51.8739 563.774 25.0228 549.346 -4.33337C557.107 -4.33337 564.873 -4.33337 572.639 -4.33337C581.607 0.723829 583.862 10.2695 588.475 18.1232C603.156 43.0943 618.843 67.6283 628.906 94.8366C639.659 123.934 645.348 153.511 637.01 184.306C629.455 212.196 613.28 235.108 591.543 254.091C565.037 277.244 536.911 298.582 507.549 318.383C473.132 341.596 436.044 359.855 396.923 374.402C357.765 388.958 317.22 398.555 275.686 403.894C243.586 408.021 211.516 409.215 180.307 397.69C153.66 387.853 133.595 370.562 117.386 348.505C104.259 330.64 94.0802 311.088 82.4139 292.392C71.9883 275.678 59.5078 260.902 41.4632 251.196C31.7139 245.956 21.2607 242.811 10.3409 240.739C5.21047 239.761 -0.560985 239.893 -4.27197 235.24C-4.27197 190.425 -4.27197 145.615 -4.27197 100.801C-1.42771 97.1865 2.2062 95.5603 7.03899 94.9211C30.5735 91.8238 53.213 86.1227 73.3384 73.1366C95.6427 58.7452 112.618 40.0205 125 17.1409C129.046 9.66316 130.831 0.658029 139.059 -4.33337C145.629 -4.33337 152.198 -4.33337 158.768 -4.33337Z" stroke="#40FDFB" stroke-width="2"/>
<path d="M2258.57 736.791C2241.57 731.451 2223.97 728.241 2207 722.601C2174.97 711.961 2153.66 689.988 2136.29 663.447C2111.3 625.25 2090.69 584.783 2069.93 544.396C2063.82 532.515 2056.55 521.324 2048.58 510.584C2030.42 486.13 1993.23 477.337 1964.17 488.635C1939.46 498.233 1925.49 514.927 1922.47 539.922C1920.52 555.977 1925.22 571.163 1931.94 585.77C1946.92 618.332 1971.94 642.452 2001.88 662.314C2030.11 681.053 2058.58 699.468 2086.92 718.061C2118.38 738.694 2135.81 767.214 2140.46 803.634C2144.04 831.764 2145.67 860.133 2151.19 888.027C2152.81 896.187 2154.77 904.299 2157.99 912.082C2163.73 925.942 2173.08 936.663 2186.91 943.619C2159.44 943.619 2131.96 943.619 2104.49 943.619C2109.82 917.078 2112.26 890.326 2111.71 863.268C2110.65 811.027 2088.2 769.545 2047.37 735.216C2012.37 705.79 1972.86 681.434 1940.85 648.849C1903.28 610.614 1881.55 564.818 1874.85 512.385C1873.67 503.107 1873.62 494.163 1875.22 485.087C1877.37 472.942 1883.85 462.344 1895.63 458.654C1935.06 446.298 1975.46 442.218 2016.28 452.107C2047.9 459.768 2065.85 482.164 2079.95 508.507C2095.52 537.586 2109.04 567.689 2126.96 595.598C2147.8 628.061 2172.08 657.69 2204.43 680.32C2220.71 691.704 2238.71 699.962 2258.57 704.046C2258.57 714.959 2258.57 725.877 2258.57 736.791Z" stroke="#40FDFB" stroke-width="2"/>
<path d="M-4.27197 235.24C36.9326 236.368 65.5436 256.676 85.9049 289.779C97.1376 308.043 107.343 326.876 119.717 344.515C146.66 382.914 184.046 402.264 232.129 402.4C285.639 402.555 336.723 390.161 386.794 373.518C422.144 361.768 455.466 345.69 487.113 326.439C515.395 309.232 541.585 289.351 567.269 268.812C581.922 257.095 596.462 245.312 608.183 230.61C634.585 197.485 642.384 160.858 632.401 120.282C624.94 89.9534 609.757 63.0506 594.226 36.176C586.563 22.9173 577.82 10.1615 572.639 -4.33327C580.4 -4.33327 588.165 -4.33327 595.926 -4.33327C603.269 14.5701 614.45 31.6123 624.25 49.3031C648.007 92.1953 665.178 136.761 662.092 186.346C660.076 218.729 647.04 247.15 624.118 270.753C601.535 294.013 576.58 314.966 550.742 334.842C532.373 348.975 511.166 358.483 489.058 365.608C416.649 388.944 343.891 411.241 269.889 429.528C245.919 435.455 221.654 440.776 196.91 441.701C172.039 442.632 149.348 434.929 129.634 420.011C106.77 402.706 91.5034 379.201 74.8201 356.932C59.0643 335.904 42.0939 316.07 20.8617 299.874C13.2729 294.088 4.71996 290.15 -4.27197 286.944C-4.27197 269.71 -4.27197 252.475 -4.27197 235.24Z" stroke="#40FDFB" stroke-width="2"/>
<path d="M230.433 -4.33353C228.893 39.8653 241.704 79.8998 267.419 116.471C280.5 135.073 285.169 156.515 285.783 178.562C286.245 195.2 286.448 211.829 289.741 228.18C296.034 259.435 314.018 273.187 345.987 271.312C357.427 270.64 368.227 266.838 378.456 262.161C415.851 245.072 449.426 222.409 481.142 196.92C490.449 189.438 498.12 180.945 505.073 171.616C525.359 144.389 524.382 116.875 507.018 88.67C493.263 66.3262 474.372 47.7801 458.846 26.7617C451.704 17.0938 446.089 6.75377 441.847 -4.33353C457.375 -4.33353 472.902 -4.33353 488.429 -4.33353C493.192 -2.13863 496.199 1.47567 498.778 5.91247C508.395 22.4706 519.933 37.8677 530.879 53.608C539.03 65.3251 546.18 77.5075 552.372 90.2915C572.343 131.529 563.003 167.052 532.232 199.552C509.175 223.903 480.978 242.416 453.665 261.884C432.067 277.276 409.949 291.945 385.579 303.032C363.31 313.166 340.182 321.146 315.108 320.15C271.771 318.425 242.908 298.393 231.175 256.958C226.299 239.737 224.129 222.047 221.246 204.487C217.552 181.974 210.639 160.383 202.624 138.993C193.23 113.923 188.458 88.2988 191.635 61.302C193.744 43.3762 195.556 25.3893 197.426 7.42115C197.939 2.49555 199.409 -1.42423 203.559 -4.33353C212.517 -4.33353 221.475 -4.33353 230.433 -4.33353Z" stroke="#40FDFB" stroke-width="2"/>
<path d="M2258.57 366.229C2258.57 375.422 2258.57 384.61 2258.57 393.803C2255.53 396.045 2252.55 395.054 2249.3 394.02C2234.03 389.141 2218.62 384.803 2202.55 382.961C2197.78 382.415 2193.03 382.227 2188.29 382.538C2176.46 383.318 2168.77 388.915 2165.43 399.881C2161.73 412.044 2160.03 424.603 2160.83 437.25C2162.56 464.839 2167.06 491.845 2179.5 517.211C2194.26 547.324 2216.36 570.397 2247.87 584.652C2251.99 586.513 2255.81 588.463 2258.57 592.012C2258.57 600.632 2258.57 609.247 2258.57 617.867C2254.92 621.476 2250.92 620.019 2246.97 618.525C2233.26 613.322 2220.57 606.14 2209.34 597.201C2175.02 569.898 2152.24 535.165 2139.9 494.04C2134.02 474.47 2128.09 454.899 2123.03 435.135C2114.79 402.912 2093.66 382.993 2061.85 372.155C2050.61 368.329 2039.42 364.236 2028.69 359.24C1996.58 344.294 1982.62 319.496 1985.93 282.221C1988.14 257.278 1993.55 232.937 2003.29 209.535C2009.71 194.1 2020.24 181.885 2033.63 171.973C2045.61 163.109 2059.97 161.572 2074.49 162.756C2125.78 166.939 2161.71 201.752 2173.36 246.9C2176.45 258.876 2179.82 270.786 2182.64 282.822C2190.04 314.42 2207.85 338.029 2238.7 352.143C2246.14 355.541 2253.93 358.967 2258.57 366.229Z" stroke="#40FDFB" stroke-width="2"/>
<path d="M323.599 943.619C314.043 943.619 304.488 943.619 294.932 943.619C292.221 939.225 295.223 935.958 297.387 932.616C307.72 916.679 315.75 899.796 319.616 881.306C323.867 860.984 315.798 844.129 300.479 831.383C276.23 811.206 246.595 802.21 215.115 799.705C184.01 797.228 153.796 802.238 125.441 815.013C110.145 821.903 94.8625 829.047 86.5796 845.051C77.5845 862.431 80.0486 879.53 85.6814 896.863C89.9847 910.103 96.395 922.361 105.037 933.495C107.452 936.607 109.55 939.704 106.81 943.619C71.7196 943.619 36.6277 943.497 1.53923 943.755C-3.39156 943.788 -4.45997 942.839 -4.41776 938.05C-4.1368 906.01 -4.27187 873.97 -4.27187 841.93C0.981724 832.234 10.0247 825.137 14.9298 815.065C20.6135 803.39 22.656 791.734 19.2515 779.185C15.9224 766.913 12.0039 754.881 4.67216 744.198C0.858953 738.643 -1.03287 732.241 -4.27187 726.451C-4.27187 707.491 -4.27187 688.531 -4.27187 669.571C-0.408014 666.907 3.06936 668.584 6.53811 670.45C22.7522 679.188 37.6121 689.763 50.7453 702.34C61.3189 712.468 72.5173 721.911 83.5711 731.499C103.069 748.419 127.115 754.364 152.481 756.897C188.327 760.474 224.21 763.821 258.893 774.165C287.628 782.733 315.043 794.098 337.618 813.523C356.319 829.616 367.698 853.478 358.421 882.947C352.592 901.465 343.588 918.545 333.488 935.183C331.069 939.163 326.98 940.907 323.599 943.619Z" stroke="#40FDFB" stroke-width="2"/>
<path d="M2258.57 366.229C2218.25 350.366 2187.01 326.758 2177.9 282.62C2174.08 264.112 2170.24 245.359 2161.94 228.021C2145.88 194.411 2119.44 174.295 2080.86 167.64C2043.72 161.234 2019.31 183.507 2007.64 210.696C1996.39 236.936 1990.34 264.399 1989.95 292.758C1989.51 324.385 2005.44 346.15 2035.93 357.788C2051.44 363.71 2066.77 370.04 2081.99 376.686C2103.21 385.941 2115.36 402.01 2122.89 422.126C2131.49 445.099 2136.69 469.041 2143.96 492.4C2159.95 543.691 2189.47 584.84 2239.45 610.713C2245.51 613.848 2251.85 616.339 2258.57 617.867C2258.57 627.06 2258.57 636.253 2258.57 645.442C2238.9 641.014 2222.42 630.693 2206.96 618.858C2168.78 589.61 2143.45 551.7 2126.94 507.877C2118.92 486.572 2111.45 465.084 2100.7 444.761C2089.3 423.193 2071.91 408.402 2049.02 399.392C2034.12 393.531 2018.63 389.01 2003.83 382.928C1963.49 366.37 1954.79 344.416 1958.3 306.421C1962.54 260.606 1974.83 216.097 1986.29 171.536C1987.65 166.263 1989.6 161.102 1991.66 156.035C1999.01 137.973 2012.53 127.13 2032.95 126.999C2084.95 126.67 2132.97 138.363 2172.03 173.689C2190.48 190.369 2197.14 212.985 2203.1 235.667C2208.79 257.358 2213.07 279.5 2224.72 299.277C2233.19 313.655 2243.7 326.363 2258.57 335.204C2258.57 345.544 2258.57 355.889 2258.57 366.229Z" stroke="#40FDFB" stroke-width="2"/>
<path d="M203.559 -4.33317C199.391 21.1314 196.929 46.8028 194.844 72.4648C193.345 90.9217 196.126 109.548 203.049 126.614C218.367 164.378 225.826 203.712 232.428 243.413C235.378 261.151 241.262 278.358 254.415 291.631C275.108 312.517 301.618 319.013 330.528 315.248C369.743 310.144 402.988 291.522 434.512 269.78C466.472 247.742 498.957 226.352 526.801 199.266C561.993 165.041 567.697 124.287 543.686 82.1092C529.893 57.8713 512.022 36.2137 497.67 12.3753C494.386 6.91863 491.501 1.24103 488.429 -4.33317C499.178 -4.33317 509.931 -4.33317 520.68 -4.33317C527.858 13.1461 539.5 28.1814 549.558 44.0627C562.942 65.1845 575.538 86.4379 582.537 110.615C592.511 145.066 582.777 174.61 560.326 201.273C536.611 229.44 505.515 249.598 475.909 271.218C449.306 290.643 422.147 309.448 391.667 323.125C362.17 336.36 331.361 345.394 298.631 345.333C269.284 345.276 241.898 337.498 218.985 319.05C206.59 309.067 199.862 295.071 194.005 280.844C185.052 259.102 182.311 235.78 175.602 213.451C170.78 197.405 164.676 181.81 157.697 166.625C146.613 142.509 146.261 118.379 154.403 93.6383C165.03 61.3493 175.623 29.0509 182.059 -4.33317C189.226 -4.33317 196.393 -4.33317 203.559 -4.33317Z" stroke="#40FDFB" stroke-width="2"/>
<path d="M1226.59 -4.33329C1225.16 12.7606 1215.11 23.3873 1199.09 29.4644C1185.47 34.625 1170.88 34.3947 1156.76 34.9869C1120.66 36.4956 1084.81 39.5787 1049.64 47.5734C1015.93 55.2391 983.683 66.5333 959.319 91.8052C942.036 109.736 931.381 131.52 922.21 154.146C913.101 176.617 908.558 200.62 897.471 222.362C882.076 252.555 865.06 258.947 834.289 255.121C815.554 252.79 797.359 248.508 779.831 241.815C751.911 231.16 733.209 211.373 721.769 185.241C707.647 152.994 697.965 119.131 683.152 87.0769C668.842 56.1039 652.639 26.0569 637.136 -4.33329C644.301 -4.33329 651.47 -4.33329 658.634 -4.33329C662.735 -2.10079 664.774 1.60744 666.841 5.50844C691.111 51.2958 712.754 98.3053 736.403 144.375C745.996 163.062 758.31 179.963 777.247 191.323C795.541 202.297 815.168 206.358 836.342 201.419C851.596 197.861 861.156 186.83 869.993 175.667C881.24 161.454 888.841 145.084 897.095 129.156C905.481 112.965 914.417 97.149 925.194 82.2077C944.314 55.695 970.904 39.0289 1000.99 26.5974C1026.26 16.154 1052.94 9.52231 1078.58 0.0612134C1084.7 -2.19479 1091.56 -1.64489 1097.59 -4.33329C1140.59 -4.33329 1183.59 -4.33329 1226.59 -4.33329Z" stroke="#40FDFB" stroke-width="2"/>
<path d="M2258.57 297.284C2244.2 279.048 2239.19 257.447 2235.45 235.611C2231.83 214.433 2229.3 193.081 2226.37 171.79C2223.22 148.858 2211.55 133.4 2187.32 126.895C2146.26 115.874 2105.46 103.936 2064.58 92.2469C2058.59 90.5361 2052.85 88.0545 2046.98 85.9677C2018.19 75.7405 2008.34 52.8845 2004.25 26.3577C2002.68 16.1728 2001.78 5.89858 2000.58 -4.33331C2012.52 -4.33331 2024.46 -4.33331 2036.41 -4.33331C2041.72 -2.25121 2043.26 2.56628 2045.18 7.04068C2059.08 39.3532 2092.99 59.441 2129.57 56.9782C2149.08 55.6669 2161.42 43.414 2164.48 21.8269C2165.32 15.8767 2166.77 9.96873 2166.72 3.90573C2166.69 0.52643 2168.09 -2.19951 2170.78 -4.33331C2185.11 -4.33331 2199.45 -4.33331 2213.78 -4.33331C2217.89 -1.43811 2219.24 2.47225 2219.94 7.33205C2223.79 33.887 2227.92 60.4044 2235.53 86.3014C2238.67 97.008 2242.74 106.845 2253.01 113.157C2255.56 114.727 2257.03 117.312 2258.57 119.761C2258.57 178.934 2258.57 238.111 2258.57 297.284Z" stroke="#40FDFB" stroke-width="2"/>
<path d="M106.81 943.619C96.8215 929.34 86.7271 915.165 81.4809 898.377C75.2928 878.566 73.0495 859.31 84.3034 840.092C93.018 825.216 107.78 818.049 122.497 811.652C164.743 793.285 208.629 789.37 253.277 802.732C275.615 809.42 297.182 818.416 311.94 837.004C324.796 853.196 328.696 871.309 321.834 891.383C315.434 910.099 306.706 927.54 294.932 943.619C280.002 943.619 265.072 943.619 250.141 943.619C248.022 938.853 252.353 936.954 254.789 934.416C266.549 922.149 274.649 907.965 278.68 891.778C282.581 876.117 275.099 858.511 261.277 849.647C234.258 832.318 199.318 833.324 173.37 852.176C152.222 867.54 146.253 900.135 160.514 922.958C163.424 927.615 166.497 932.203 170.396 936.207C172.399 938.266 174.928 940.23 173.101 943.619C151.004 943.619 128.907 943.619 106.81 943.619Z" stroke="#40FDFB" stroke-width="2"/>
<path d="M1097.59 -4.33347C1087.6 2.21363 1076.07 5.45191 1064.87 9.23071C1037.58 18.438 1009.85 26.3434 983.861 38.9911C954.579 53.2415 933.344 74.8991 917.019 101.722C902.991 124.757 892.336 149.488 877.904 172.344C841.876 229.398 779.802 208.186 752.047 175.441C732.687 152.595 722.211 125.217 709.122 99.2216C694.305 69.7855 680.089 40.0674 664.736 10.8804C662.171 5.9971 659.789 1.06213 658.634 -4.33347C666.399 -4.33347 674.165 -4.33347 681.926 -4.33347C687.404 -1.32077 690.063 3.67533 692.59 8.96753C710.24 45.9941 729.314 82.2969 752.371 116.536C759.902 127.713 769.974 136.634 780.813 144.83C797.528 157.469 826.5 157.539 844.45 139.806C861.509 122.952 873.822 103.047 886.68 83.4531C898.796 65.0009 911.649 47.0892 927.106 31.1092C938.719 19.1054 952.488 9.50331 967.014 0.935214C971.928 -1.95999 977.909 -1.77197 982.922 -4.33347C1021.14 -4.33347 1059.37 -4.33347 1097.59 -4.33347Z" stroke="#40FDFB" stroke-width="2"/>
<path d="M323.599 943.619C331.655 928.32 341.497 913.976 348.374 898.01C358.198 875.201 362.038 852.937 347.279 830.659C336.612 814.557 320.366 804.875 303.551 796.255C270.263 779.189 234.227 770.734 197.03 765.945C174.342 763.026 151.447 761.771 128.915 757.522C108.325 753.64 91.323 743.874 75.9932 730.511C50.6884 708.454 27.4474 683.826 -4.27197 669.571C-4.27197 656.36 -4.27197 643.143 -4.27197 629.931C1.20569 625.105 6.56995 628.724 11.5598 630.575C35.1421 639.336 56.2014 652.233 75.7217 667.583C88.874 677.923 101.946 688.353 115.472 698.255C140.545 716.609 169.937 725.294 199.728 732.697C242.242 743.267 284.251 755.088 324.117 773.112C340.913 780.703 357.25 789.398 371.304 800.908C400.87 825.127 406.015 849.732 390.698 883.99C382.538 902.245 372.011 919.198 360.933 935.887C358.357 939.769 354.412 941.612 350.473 943.619C341.515 943.619 332.557 943.619 323.599 943.619Z" stroke="#40FDFB" stroke-width="2"/>
<path d="M350.473 943.619C365.697 920.974 380.417 898.217 390.528 872.734C403.252 840.67 384.496 814.595 365.072 801.312C324.528 773.587 278.484 758.044 231.217 745.208C199.662 736.64 167.324 730.389 137.644 716.256C117.405 706.621 100.407 692.54 83.2524 678.75C56.9779 657.624 29.2906 638.927 -4.27197 629.932C-4.27197 619.013 -4.27197 608.1 -4.27197 597.182C12.4603 601.294 29.1638 605.247 45.0721 612.147C72.1536 623.887 94.4997 641.865 116.228 660.655C143.604 684.334 174.13 702.528 209.035 714.259C272.347 735.531 335.981 756.145 395.639 786.192C406.424 791.621 417.346 797.233 425.138 806.689C440.22 825 438.208 844.247 428.589 864.118C416.291 889.522 399.419 912.077 382.276 934.496C379.981 937.5 377.794 940.573 375.556 943.619C367.195 943.619 358.834 943.619 350.473 943.619Z" stroke="#40FDFB" stroke-width="2"/>
<path d="M1699.58 -4.3333C1697.69 21.3381 1697.55 47.1269 1694.05 72.6902C1692.67 82.7012 1680.63 91.3211 1669.94 90.1461C1628.56 85.5918 1587.15 82.4427 1545.44 81.2207C1516.03 80.3606 1486.49 82.1325 1457.13 78.4712C1433.6 75.5337 1411.19 69.4755 1393.17 54.3509C1379.23 42.6479 1372.38 25.9441 1366.06 9.44238C1364.3 4.86928 1362.65 0.258599 1360.96 -4.3333C1372.91 -4.3333 1384.85 -4.3333 1396.79 -4.3333C1400.37 -2.27 1403.77 -0.202075 1405.9 3.60493C1420.81 30.127 1445.97 41.0357 1475.34 44.9179C1503.59 48.6544 1531.83 46.8544 1560.06 43.9686C1579.35 41.9993 1598.64 40.4059 1617.23 34.5779C1634.08 29.2951 1647.93 20.586 1655.31 4.33343C1657.07 0.455925 1660.36 -1.9598 1663.75 -4.3333C1675.69 -4.3333 1687.64 -4.3333 1699.58 -4.3333Z" stroke="#40FDFB" stroke-width="2"/>
<path d="M173.101 943.619C140.291 917.087 140.67 877.029 167.875 851.414C193.554 827.242 244.157 826.918 269.714 850.935C284.834 865.143 287.977 882.82 280.358 901.742C273.829 917.957 265.081 932.912 250.141 943.619C224.461 943.619 198.781 943.619 173.101 943.619Z" stroke="#40FDFB" stroke-width="2"/>
<path d="M982.922 -4.33324C969.937 4.78476 955.871 12.3282 943.351 22.2076C927.19 34.9587 914.99 50.7695 903.142 66.9234C888.005 87.5517 875.814 110.079 859.442 129.936C853.851 136.718 847.547 142.828 840.645 148.309C822.244 162.912 790.631 160.655 770.971 142.889C752.978 126.632 740.19 107.165 728.544 86.7668C712.303 58.3271 696.983 29.4268 683.26 -0.234875C682.659 -1.53677 682.363 -2.96554 681.926 -4.33324C689.692 -4.33324 697.453 -4.33324 705.219 -4.33324C709.766 -2.31224 712.233 1.18454 714.431 5.54144C727.045 30.5313 739.518 55.634 757.234 77.8368C763.783 86.0383 771.126 93.5348 779.53 99.9973C796.598 113.129 818.279 111.461 836.258 95.631C846.645 86.4848 855.157 75.7829 863.007 64.6345C875.532 46.8497 887.831 28.924 900.591 11.2943C905.035 5.15606 909.493 -0.822338 916.634 -4.33324C938.728 -4.33324 960.827 -4.33324 982.922 -4.33324Z" stroke="#40FDFB" stroke-width="2"/>
<path d="M712.383 943.619C719.979 923.78 733.707 908.172 751.686 896.99C783.693 877.09 816.395 858.178 852.728 845.986C892.153 832.765 926.368 841.3 954.899 869.575C976.429 890.913 991.744 916.561 1004.42 943.619C996.062 943.619 987.7 943.619 979.342 943.619C973.7 941.043 970.496 936.381 967.179 931.502C954.932 913.487 942.304 895.825 920.825 886.415C903.203 878.693 885.872 878.449 868.241 886.19C847.439 895.326 829.53 908.439 812.444 922.807C803.1 930.666 794.441 939.53 782.26 943.619C758.967 943.619 735.675 943.619 712.383 943.619Z" stroke="#40FDFB" stroke-width="2"/>
<path d="M-4.27197 336.929C25.8743 356.171 46.5628 383.309 63.8773 413.116C70.7095 424.875 76.5255 437.152 81.2765 449.903C85.4182 461.023 86.2023 472.421 85.0536 483.86C83.9632 494.727 75.0851 500.494 66.2972 505.368C48.6269 515.172 28.5674 517.55 8.98331 521.249C4.60947 522.076 0.14884 522.476 -4.27197 523.073C-4.27197 461.023 -4.27197 398.974 -4.27197 336.929Z" stroke="#40FDFB" stroke-width="2"/>
<path d="M1233.75 943.619C1262.15 930.844 1291.45 920.208 1321.01 910.329C1353.98 899.312 1387.4 889.531 1420.47 878.759C1467.26 863.521 1512.21 869.42 1555.9 889.254C1582.89 901.502 1609.84 913.981 1630.89 935.276C1633.34 937.753 1636.29 939.901 1636.87 943.619C1620.75 943.619 1604.62 943.619 1588.5 943.619C1577.49 940.714 1567.71 935.164 1557.79 930.012C1513.15 906.832 1466.3 902.616 1417.41 914.164C1387.88 921.144 1358.48 928.551 1329.62 937.772C1319.95 940.86 1309.72 940.841 1300.05 943.619C1277.95 943.619 1255.85 943.619 1233.75 943.619Z" stroke="#40FDFB" stroke-width="2"/>
<path d="M916.634 -4.33329C913.632 3.33711 907.52 9.03821 902.691 15.5007C885.478 38.5495 870.938 63.3937 852.08 85.3286C843.3 95.5417 834.101 105.858 820.764 110.234C796.236 118.285 779.756 108.185 764.478 92.2469C737.559 64.1691 721.544 29.8075 705.219 -4.33329C716.564 -4.33329 727.914 -4.33329 739.26 -4.33329C743.347 -1.81409 746.142 1.64041 748.604 5.72471C757.568 20.6143 767.072 35.156 781.94 45.5289C794.639 54.3931 807.854 54.1723 820.769 45.4491C835.168 35.7248 843.68 21.5261 852.498 7.63289C855.726 2.54279 859.123 -1.73889 864.675 -4.33329C881.992 -4.33329 899.313 -4.33329 916.634 -4.33329Z" stroke="#40FDFB" stroke-width="2"/>
<path d="M1663.75 -4.33324C1653.88 27.5375 1627.9 38.902 1597.09 43.7336C1561.72 49.2796 1526.06 52.4427 1490.24 50.6238C1461.77 49.1809 1434.58 43.1461 1414.03 21.7141C1406.66 14.0296 1401.45 5.01506 1396.79 -4.33324C1416.5 -4.33324 1436.21 -4.33324 1455.92 -4.33324C1500.11 13.6396 1544.3 5.98796 1588.5 -4.33324C1613.58 -4.33324 1638.67 -4.33324 1663.75 -4.33324Z" stroke="#40FDFB" stroke-width="2"/>
<path d="M2258.57 592.012C2240.22 588.755 2225.56 578.673 2212.32 567.078C2177.38 536.463 2161.86 497.114 2158.02 452.53C2156.85 439.022 2156.4 425.759 2158.14 412.284C2161.24 388.446 2170.98 375.826 2198.38 378.42C2219.24 380.394 2239.59 384.77 2258.57 393.804C2258.57 404.148 2258.57 414.488 2258.57 424.828C2256.09 427.714 2252.78 427.545 2249.52 426.807C2243.06 425.355 2236.48 425.796 2229.95 425.383C2210.1 424.128 2196.75 439.614 2194.96 456.478C2191.31 490.896 2202.76 519.702 2230.16 542.422C2236.11 547.357 2242.99 550.788 2250.07 553.839C2253.75 555.422 2256.84 557.387 2258.57 560.987C2258.57 571.332 2258.57 581.672 2258.57 592.012Z" stroke="#40FDFB" stroke-width="2"/>
<path d="M2258.57 921.209C2251.52 920.086 2244.39 919.324 2237.45 917.773C2214.77 912.716 2199.47 899.815 2191.98 878.275C2183.03 852.547 2182.6 827.129 2193.42 801.829C2200.5 785.29 2214.77 778.983 2231.94 776.402C2240.89 775.058 2249.7 776.026 2258.57 776.435C2258.57 794.817 2258.57 813.203 2258.57 831.585C2256.32 833.441 2255.28 836.158 2252.98 838.099C2242.84 846.658 2242.31 857.792 2251.73 866.957C2254.24 869.401 2256.18 872.193 2258.57 874.675C2258.57 890.189 2258.57 905.699 2258.57 921.209Z" stroke="#40FDFB" stroke-width="2"/>
<path d="M407.806 943.619C411.282 934.632 419.666 929.345 425.886 922.629C443.738 903.359 463.094 885.362 485.196 870.52C502.161 859.127 523.099 859.602 539.424 871.897C563.623 890.128 576.115 915.038 581.593 943.619C567.861 943.619 554.124 943.619 540.387 943.619C534.867 940.272 529.714 936.564 524.908 932.236C514.925 923.24 502.649 921.707 489.899 924.57C479.484 926.906 469.191 930.219 460.629 936.714C456.011 940.221 450.136 940.611 445.43 943.619C432.889 943.619 420.347 943.619 407.806 943.619Z" stroke="#40FDFB" stroke-width="2"/>
<path d="M782.26 943.619C809.371 919.118 836.206 893.991 871.492 880.498C897.674 870.477 921.403 877.692 941.862 894.856C957.962 908.364 969.617 925.392 979.342 943.619C966.799 943.619 954.255 943.619 941.717 943.619C935.454 939.845 929.098 936.231 922.878 932.391C905.467 921.642 887.831 923.113 870.665 932.649C862.947 936.94 855.195 940.902 846.757 943.619C825.26 943.619 803.757 943.619 782.26 943.619Z" stroke="#40FDFB" stroke-width="2"/>
<path d="M2170.78 -4.33344C2170.82 12.3422 2169.46 28.5712 2161.17 43.9308C2154.79 55.7607 2143.87 59.9062 2132.04 60.7851C2095.68 63.4923 2048.96 46.2009 2037.91 -0.300892C2037.58 -1.68269 2036.92 -2.99394 2036.41 -4.33344C2081.2 -4.33344 2125.99 -4.33344 2170.78 -4.33344Z" stroke="#40FDFB" stroke-width="2"/>
<path d="M1952.2 -4.33318C1950.11 3.71792 1948.29 11.8489 1945.87 19.8107C1936.93 49.2139 1916.67 67.0457 1885.56 73.2638C1850.31 80.3091 1815.25 80.3185 1780.97 68.5403C1755.68 59.8547 1741 41.6469 1733.88 17.3103C1731.79 10.1522 1730.12 2.88132 1728.25 -4.33318C1737.21 -4.33318 1746.16 -4.33318 1755.12 -4.33318C1758.44 -1.79048 1760.64 1.41959 1762.4 5.19369C1776.4 35.1844 1801.35 49.745 1834.76 51.7989C1846.07 52.4945 1857.33 51.9587 1868.51 49.4207C1893.69 43.7055 1910.52 28.7783 1920.74 6.46269C1922.7 2.19039 1924.41 -1.96908 1928.91 -4.33318C1936.67 -4.33318 1944.44 -4.33318 1952.2 -4.33318Z" stroke="#40FDFB" stroke-width="2"/>
<path d="M1300.05 943.619C1322.24 934.393 1345.51 928.236 1368.72 922.046C1394.22 915.24 1419.69 908.35 1446.15 905.206C1482.07 900.938 1516.17 906.268 1548.66 921.134C1562.56 927.498 1576.99 933.222 1588.5 943.619C1562.22 943.619 1535.94 943.619 1509.67 943.619C1482.35 938.952 1454.82 938.9 1427.27 940.55C1414.72 941.302 1402.05 941.203 1389.63 943.619C1359.77 943.619 1329.91 943.619 1300.05 943.619Z" stroke="#40FDFB" stroke-width="2"/>
<path d="M2258.57 560.987C2218.55 551.507 2187.1 506.026 2190.3 469.14C2191.19 458.842 2190.33 448.483 2196.14 439.14C2206.1 423.122 2223.22 417.379 2247.28 422.154C2251.07 422.906 2254.81 423.931 2258.57 424.828C2258.57 439.765 2258.57 454.706 2258.57 469.643C2256.24 472.684 2252.88 473.29 2249.21 473.774C2240.77 474.879 2237.89 478.23 2237.87 486.286C2237.85 495.342 2242.42 502.096 2249.61 507.426C2252.67 509.687 2256.03 511.581 2258.57 514.453C2258.57 529.967 2258.57 545.477 2258.57 560.987Z" stroke="#40FDFB" stroke-width="2"/>
<path d="M380.931 -4.33336C379.122 12.9673 377.41 30.2821 375.468 47.5734C374.205 58.8158 364.013 66.7306 352.362 64.6485C328.129 60.3057 304.688 53.2604 287.351 35.3675C276.784 24.4588 269.91 10.9557 268.058 -4.33336C305.682 -4.33336 343.306 -4.33336 380.931 -4.33336Z" stroke="#40FDFB" stroke-width="2"/>
<path d="M1928.91 -4.33326C1917.56 34.7801 1888.5 55.728 1846.22 56.0758C1818.56 56.3061 1793.37 50.6896 1774.11 30.1365C1764.87 20.29 1757.22 9.30614 1755.12 -4.33326C1765.28 -4.33326 1775.43 -4.33326 1785.58 -4.33326C1794.86 -0.389959 1799.72 8.45544 1807.69 13.9967C1830.31 29.7229 1865.12 27.6643 1885.14 8.84079C1890 4.26769 1894.04 -1.18426 1900.24 -4.33326C1909.8 -4.33326 1919.35 -4.33326 1928.91 -4.33326Z" stroke="#40FDFB" stroke-width="2"/>
<path d="M864.675 -4.33335C855.124 11.8205 845.949 28.2611 832.128 41.5668C812.049 60.9026 792.713 61.9413 772.056 43.0943C757.591 29.8873 746.278 13.9778 739.26 -4.33335C781.067 -4.33335 822.869 -4.33335 864.675 -4.33335Z" stroke="#40FDFB" stroke-width="2"/>
<path d="M139.059 -4.33344C118.284 50.7741 80.1321 86.8653 18.6579 97.3651C11.0433 98.667 3.3726 99.6634 -4.27197 100.801C-4.27197 91.0342 -4.27197 81.2677 -4.27197 71.5011C-0.258373 66.7071 5.81002 66.942 11.2278 65.8704C42.0862 59.7792 69.5806 47.7472 91.0975 24.8441C96.7218 18.8563 101.625 12.3656 106.042 5.54124C108.611 1.56974 111.7 -1.79544 115.768 -4.33344C123.532 -4.33344 131.296 -4.33344 139.059 -4.33344Z" stroke="#40FDFB" stroke-width="2"/>
<path d="M2258.57 119.761C2244.88 115.554 2236.98 106.154 2233.01 93.2762C2224.28 64.954 2219.42 35.9034 2215.52 6.67407C2215.04 2.99397 2214.37 -0.667289 2213.78 -4.33329C2224.53 -4.33329 2235.28 -4.33329 2246.03 -4.33329C2253.21 2.47701 2252.85 11.8582 2254.88 20.3511C2256.46 26.9734 2256.57 33.8917 2258.57 40.4764C2258.57 66.9045 2258.57 93.3326 2258.57 119.761Z" stroke="#40FDFB" stroke-width="2"/>
<path d="M115.768 -4.33328C107.229 16.342 92.3532 32.3502 73.9609 45.0073C50.7203 61.0061 24.6066 70.3262 -4.27197 71.5012C-4.27197 64.6063 -4.27197 57.7113 -4.27197 50.8164C-1.47414 47.2162 2.24804 45.5948 6.87456 44.5984C33.763 38.8315 58.2008 28.3175 77.3998 8.63395C82.0667 3.84935 85.9829 -1.57908 92.4768 -4.33328C100.241 -4.33328 108.004 -4.33328 115.768 -4.33328Z" stroke="#40FDFB" stroke-width="2"/>
<path d="M1900.24 -4.33329C1889.4 19.5239 1859.21 33.2667 1830.61 27.6267C1810.39 23.6364 1795.33 13.1742 1785.58 -4.33329C1823.8 -4.33329 1862.02 -4.33329 1900.24 -4.33329Z" stroke="#40FDFB" stroke-width="2"/>
<path d="M-4.27197 726.451C12.8754 742.586 20.6866 763.031 24.5347 785.144C28.1868 806.13 15.0847 831.524 -4.27197 841.93C-4.27197 803.437 -4.27197 764.944 -4.27197 726.451Z" stroke="#40FDFB" stroke-width="2"/>
<path d="M92.4768 -4.33332C79.7182 17.0376 59.986 30.5641 37.0653 39.9547C23.91 45.3409 10.031 49.0398 -4.27197 50.8164C-4.27197 42.7747 -4.27197 34.7331 -4.27197 26.6914C-1.59067 23.9701 1.37599 21.8786 5.32552 20.9104C20.6497 17.1363 34.8685 10.9275 47.7324 2.04454C51.635 -0.648559 56.2183 -1.93162 60.2275 -4.33332C70.9772 -4.33332 81.727 -4.33332 92.4768 -4.33332Z" stroke="#40FDFB" stroke-width="2"/>
<path d="M445.43 943.619C462.377 927.329 482.5 917.802 506.76 919.799C522.357 921.087 532.716 931.037 540.387 943.619C508.733 943.619 477.083 943.619 445.43 943.619Z" stroke="#40FDFB" stroke-width="2"/>
<path d="M846.757 943.619C863.815 930.167 881.733 917.637 905.289 921.567C919.956 924.011 933.476 930.318 941.716 943.619C910.062 943.619 878.412 943.619 846.757 943.619Z" stroke="#40FDFB" stroke-width="2"/>
<path d="M1588.5 -4.33336C1573.79 4.95854 1556.64 6.58004 1540.01 9.01464C1524.8 11.2377 1509.42 12.2341 1493.82 9.77132C1479.95 7.58582 1467.43 3.14904 1455.92 -4.33336C1500.11 -4.33336 1544.3 -4.33336 1588.5 -4.33336Z" stroke="#40FDFB" stroke-width="2"/>
<path d="M60.2275 -4.33327C43.0823 14.3868 20.5277 22.6964 -4.27197 26.6914C-4.27197 19.2184 -4.27197 11.7501 -4.27197 4.28177C-1.32935 -1.39113 4.47698 -1.28769 9.80911 -2.37809C12.8789 -3.00319 16.1379 -2.89037 19.0194 -4.33327C32.7553 -4.33327 46.4914 -4.33327 60.2275 -4.33327Z" stroke="#40FDFB" stroke-width="2"/>
<path d="M2258.57 514.453C2242.02 512.826 2229.32 494.76 2234.23 479.489C2236.11 473.614 2239.99 469.605 2247.04 469.666C2250.88 469.699 2254.73 469.652 2258.57 469.643C2258.57 484.579 2258.57 499.516 2258.57 514.453Z" stroke="#40FDFB" stroke-width="2"/>
<path d="M1389.62 943.619C1401.66 938.91 1414.61 938.999 1427.17 937.368C1452.33 934.106 1477.45 934.755 1502.19 940.987C1504.75 941.631 1507.18 942.731 1509.67 943.619C1469.65 943.619 1429.64 943.619 1389.62 943.619Z" stroke="#40FDFB" stroke-width="2"/>
<path d="M2258.57 874.675C2246.71 870.83 2240.61 863.127 2240.69 852.087C2240.77 841.545 2245.86 835.702 2258.57 831.585C2258.57 845.948 2258.57 860.312 2258.57 874.675Z" stroke="#40FDFB" stroke-width="2"/>
<path d="M1776.62 943.619C1777.17 936.367 1781.08 931.107 1787.97 928.678C1794.75 926.29 1799.86 929.918 1804.16 934.755C1806.85 937.772 1809.68 940.667 1812.45 943.619C1800.51 943.619 1788.56 943.619 1776.62 943.619Z" stroke="#40FDFB" stroke-width="2"/>
<path d="M2258.57 40.4766C2251.9 26.1839 2247.35 11.346 2246.03 -4.33316C2258.57 -4.33316 2258.57 -4.3332 2258.57 7.7317C2258.57 18.6451 2258.57 29.5632 2258.57 40.4766Z" stroke="#40FDFB" stroke-width="2"/>
<path d="M19.0195 -4.33331C11.7772 -0.159706 3.79087 2.15734 -4.27193 4.28174C-5.87967 -3.00796 -2.94495 -5.55068 4.7053 -4.45558C9.38029 -3.79288 14.2417 -4.33331 19.0195 -4.33331Z" stroke="#40FDFB" stroke-width="2"/>
<path d="M396.2 721.328C358.941 722.085 327.519 709.977 296.362 697.583C264.868 685.058 234.206 670.714 208.522 648.544C177.374 621.655 157.752 588.614 149.388 548.767C144.414 525.07 156.853 511.459 174.669 500.484C200.393 484.641 229.155 474.592 257.129 463.119C301.114 445.09 346.311 430.403 392.331 417.999C413.084 412.406 434.306 408.863 455.715 407.885C477.773 406.874 498.853 410.24 511.819 430.943C517.391 439.835 519.129 449.828 520.351 459.717C525.11 498.2 519.42 535.8 507.878 572.606C497.702 605.055 485.478 636.85 471.187 667.842C463.759 683.958 453.855 698.462 439.304 709.832C425.728 720.435 409.98 721.577 396.2 721.328Z" stroke="#40FDFB" stroke-width="2"/>
<path d="M1015.53 574.547C1013.59 532.759 1012.19 490.939 1009.54 449.198C1007.7 420.331 1006.19 391.44 1004.14 362.591C1001.42 324.267 997.763 285.976 999.21 247.544C1000.37 216.844 1005.76 187.004 1025.68 161.473C1035.4 149.004 1049.11 142.058 1063.72 136.756C1096.19 124.982 1129.35 127.539 1162.48 133.518C1197.18 139.783 1231.07 148.468 1262.92 163.809C1287.61 175.705 1300.71 195.539 1307.09 220.247C1317.17 259.261 1307.52 296.034 1291.78 331.726C1266.96 388.018 1244.09 445.052 1220.62 501.866C1207.56 533.492 1199.85 566.477 1192.4 599.612C1186.83 624.395 1179.26 648.6 1159.85 667.461C1122.44 703.802 1046.45 699.492 1025.59 638.829C1018.38 617.848 1015.19 596.501 1015.53 574.547Z" stroke="#40FDFB" stroke-width="2"/>
<path d="M1412.93 239.103C1410.9 217.328 1418.75 196.944 1440.71 183.935C1469.11 167.109 1522.27 170.873 1534.84 211.26C1539.42 225.962 1537.39 241.138 1529.77 254.712C1519.77 272.53 1505.33 286.921 1486.19 295.433C1443.71 314.322 1416.97 297.477 1412.98 253.636C1412.62 249.65 1412.93 245.608 1412.93 239.103Z" stroke="#40FDFB" stroke-width="2"/>
<path d="M1733.62 707.514C1731.46 732.509 1722.95 761.386 1706.02 787.311C1693.61 806.318 1674.7 812.649 1651.29 810.308C1616.77 806.858 1585.53 793.835 1554.39 780.975C1513.92 764.267 1474.68 768.718 1435.15 782.982C1393.52 798.004 1354.21 818.463 1311.89 831.801C1275.87 843.156 1239.69 854.065 1201.15 854.046C1195.08 854.042 1189.32 852.876 1183.55 851.353C1163.11 845.953 1161.54 826.349 1169.57 813.387C1174.59 805.303 1181.26 798.154 1188.43 791.644C1212.44 769.841 1233.81 746.092 1248.92 717.554C1262.02 692.803 1270.22 666.483 1276.75 639.571C1284.96 605.774 1291.88 571.647 1306.98 539.72C1315.94 520.76 1328.5 504.62 1345.07 491.507C1358.45 480.913 1376.81 480.744 1391.95 490.102C1409.53 500.978 1422.48 516.45 1435.99 531.358C1463.36 561.561 1489.17 593.29 1525.08 615.131C1544.48 626.928 1565.44 632.968 1588.47 633.527C1607.61 633.997 1626.57 631.017 1645.65 631.732C1657.85 632.183 1670.1 633.066 1681.93 636.164C1715.21 644.868 1733.65 668.509 1733.62 707.514Z" stroke="#40FDFB" stroke-width="2"/>
<path d="M1671.97 468.266C1652.5 466.771 1634.1 465.107 1618.1 454.678C1604.91 446.082 1601.26 431.493 1607.37 417.543C1615.85 398.189 1632.93 386.993 1649.23 375.032C1668.49 360.894 1687.21 346.202 1700.68 326.518C1712.48 309.293 1718.41 289.614 1724.55 270.1C1732.14 245.951 1738.71 221.516 1750.67 198.791C1767.8 166.248 1796.31 151.415 1832.76 147.115C1851.92 144.849 1870.02 147.03 1887.97 153.309C1910.22 161.088 1920.24 177.453 1923.47 198.824C1927.52 225.68 1920.71 251.351 1912.87 276.562C1898.32 323.299 1879.79 368.734 1861.91 414.366C1855.71 430.191 1843.61 439.887 1827.05 443.581C1787.83 452.319 1748.06 458.302 1708.32 464.341C1695.99 466.216 1683.5 467.048 1671.97 468.266Z" stroke="#40FDFB" stroke-width="2"/>
<path d="M755.51 718.663C754.002 750.797 749.097 782.024 729.53 809.401C719.369 823.619 701.127 830.048 683.932 824.968C664.539 819.243 647.716 808.884 631.795 797.106C613.915 783.875 598.844 768.248 587.193 749.514C566.597 716.379 563.821 682.149 579.3 646.527C586.958 628.912 596.41 612.42 611.866 599.908C645.574 572.639 680.611 577.348 710.974 603.847C735.525 625.269 745.541 654.198 751.625 684.499C753.88 695.713 755.735 707.092 755.51 718.663Z" stroke="#40FDFB" stroke-width="2"/>
<path d="M2038.67 595.499C2038.69 605.614 2030.58 611.179 2021.93 608.114C2003.91 601.722 1993.26 588.976 1989.1 571.233C1987.62 564.898 1990.34 559.197 1995.57 555.244C2000.79 551.301 2006.61 551.634 2012.35 554.774C2029.38 564.085 2033.95 580.553 2038.67 595.499Z" stroke="#40FDFB" stroke-width="2"/>
<path d="M369.678 142.678C371.149 127.878 372.162 113.016 374.212 98.2912C376.473 82.0433 387.772 75.5244 403.563 80.9764C415.925 85.244 427.839 90.5784 438.757 97.6989C472.033 119.389 462.975 152.195 438.123 169.726C428.447 176.555 417.386 181.096 406.061 184.734C390.912 189.598 379.141 183.756 373.884 168.984C370.872 160.519 369.563 151.721 369.678 142.678Z" stroke="#40FDFB" stroke-width="2"/>
<path d="M2133.15 286.658C2133.59 294.436 2133.16 304.109 2129.65 313.509C2126.45 322.11 2120.16 328.582 2111.21 329.329C2084.9 331.538 2059.67 330.011 2039.12 309.843C2026.25 297.214 2024.67 282.414 2025.98 266.932C2027.48 249.269 2032.93 232.843 2047.44 220.078C2061.27 207.909 2084.39 205.108 2100.13 215.307C2121.5 229.153 2131.51 249.152 2133.12 273.437C2133.37 277.154 2133.15 280.9 2133.15 286.658Z" stroke="#40FDFB" stroke-width="2"/>
<path d="M386.82 691.017C342.75 689.485 311.636 678.013 282.606 660.477C265.571 650.184 250.049 638.204 237.818 622.628C211.002 588.473 213.742 550.393 245.123 520.13C288.351 478.436 341.332 455.204 400.719 444.352C414.797 441.781 429.243 441.217 443.27 444.714C467.865 450.852 481.339 467.373 486.45 490.501C493.121 520.689 489.434 550.459 480.31 579.623C471.69 607.165 461.777 634.406 443.391 657.577C426.992 678.238 407.17 693.79 386.82 691.017Z" stroke="#40FDFB" stroke-width="2"/>
<path d="M1282.28 260.789C1281.7 283.866 1274.3 307.22 1265.52 330.114C1250.03 370.492 1234.25 410.78 1217.71 450.768C1208.57 472.872 1197.64 494.285 1187.54 516.027C1174.94 543.179 1168.38 572.14 1160.29 600.641C1156.79 612.974 1151.08 624.484 1143.11 634.5C1132.68 647.599 1117.93 652.745 1101.02 650.283C1082.87 647.636 1072.75 635.576 1065.95 620.315C1060 606.953 1056.83 592.689 1056.74 578.434C1056.39 529.648 1045.32 482.314 1037.55 434.501C1032.26 401.972 1028.52 369.241 1025.64 336.398C1023.43 311.215 1021.4 286.07 1022.5 260.855C1023.56 236.64 1027.91 213.089 1041.08 191.633C1055.81 167.63 1079.09 157.662 1106.13 154.386C1146.71 149.465 1184.91 159.429 1221.7 174.553C1260.01 190.303 1281.39 218.075 1282.28 260.789Z" stroke="#40FDFB" stroke-width="2"/>
<path d="M1313.61 781.601C1309.96 781.601 1307.58 781.634 1305.19 781.591C1288.6 781.323 1278.15 770.208 1280.82 754.566C1289.6 703.021 1301.25 652.036 1315.75 601.718C1321.69 581.089 1331.43 561.89 1349.63 548.236C1363.78 537.619 1380.9 537.144 1396.35 546.375C1410.64 554.906 1423.26 565.49 1434.38 577.508C1454.8 599.579 1474.36 622.327 1489.98 647.947C1493.8 654.202 1496.78 660.754 1498.8 667.649C1504.81 688.113 1499.21 701.578 1479.5 715.956C1455.26 733.637 1427.82 745.613 1400.18 757.161C1377.48 766.641 1354.72 776.04 1330.16 780.501C1324.2 781.582 1318.3 781.417 1313.61 781.601Z" stroke="#40FDFB" stroke-width="2"/>
<path d="M1896.66 234.267C1895.54 256.517 1884.88 282.855 1870.15 307.77C1858.76 327.026 1846.31 345.591 1825.29 356.946C1818.75 360.48 1812.24 363.836 1805.08 366.022C1778.89 374.007 1759.8 362.873 1757.26 336.769C1752.99 292.852 1758.92 250.425 1780.38 210.757C1793.05 187.351 1827.53 169.872 1852 174.492C1883.33 180.419 1896.66 196.183 1896.66 234.267Z" stroke="#40FDFB" stroke-width="2"/>
<path d="M719.608 705.954C719.552 723.447 713.759 739.207 703.678 753.56C695.855 764.69 677.731 770.903 664.145 767.881C614.21 756.766 585.558 697.456 610.025 655.669C632.622 617.072 677.341 615.954 702.658 651.42C713.844 667.09 719.561 686.693 719.608 705.954Z" stroke="#40FDFB" stroke-width="2"/>
<path d="M459.743 539.63C457.899 577.348 447.331 611.512 418.883 639.425C404.439 653.596 387.775 660.265 367.64 659.17C330.548 657.149 301.391 640.629 281.185 611.221C264.462 586.884 268.787 556.184 291.583 531.044C315.832 504.301 345.409 485.073 382.178 477.567C399.734 473.981 417.303 472.914 433.346 482.22C451.179 492.565 458.458 509.076 459.708 528.444C459.948 532.157 459.743 535.899 459.743 539.63Z" stroke="#40FDFB" stroke-width="2"/>
<path d="M1136 181.665C1166.79 182.153 1194.94 191.121 1219.21 209.028C1244.99 228.044 1251.97 255.069 1247.1 284.632C1240.06 327.435 1222.79 367.347 1206.87 407.57C1196.08 434.802 1182.24 460.468 1163.69 483.607C1157.67 491.122 1150.77 497.904 1142.31 503.003C1125.77 512.991 1111.74 510.303 1100.69 494.699C1086.28 474.333 1076.34 451.914 1069.42 428.311C1057.66 388.15 1051.83 347.123 1048.77 305.491C1047.23 284.562 1048.66 264.305 1053.23 244.113C1062.46 203.28 1091.37 181.152 1136 181.665Z" stroke="#40FDFB" stroke-width="2"/>
<path d="M1432.85 663.189C1434.91 676.819 1424.86 687.84 1413.14 697.64C1398.24 710.095 1381.17 717.272 1360.84 714.536C1349.35 712.995 1342.45 705.625 1340.26 695.722C1334.28 668.725 1337.38 641.973 1352.31 618.534C1364.32 599.696 1378.61 589.225 1404.8 608.796C1422 621.641 1432.8 638.255 1432.85 663.189Z" stroke="#40FDFB" stroke-width="2"/>
<path d="M1832.81 251.483C1831.1 251.572 1829.9 250.872 1829.7 249.232C1829.51 247.558 1830.69 246.623 1832.23 246.261C1833.78 245.895 1835.38 246.205 1835.73 247.902C1836.13 249.927 1834.62 250.914 1832.81 251.483Z" stroke="#40FDFB" stroke-width="2"/>
<path d="M371.487 602.329C355.501 605.431 340.283 588.153 341.37 572.568C342.796 552.133 363.484 532.957 384.486 531.396C402.767 530.043 411.861 547.024 410.963 560.781C409.943 576.418 401.929 588.182 389.886 598.094C384.266 602.723 377.877 602.376 371.487 602.329Z" stroke="#40FDFB" stroke-width="2"/>
<path d="M1074.1 298.502C1074.61 282.696 1076.49 268.798 1080.85 255.29C1093.02 217.521 1132.63 202.124 1171.62 217.958C1206.23 232.016 1221.52 262.707 1213.59 299.677C1204.49 342.066 1190.61 382.853 1165.35 419.32C1161.97 424.189 1157.75 427.982 1152.84 431.418C1134.38 444.324 1118.22 437.025 1108.26 422.756C1092.33 399.904 1085.08 373.843 1079.86 347.175C1076.6 330.537 1075.23 313.692 1074.1 298.502Z" stroke="#40FDFB" stroke-width="2"/>
<path d="M1158.33 298.361C1158.68 308.16 1155.73 317.132 1149.85 324.986C1143.08 334.02 1135.2 333.286 1129.98 323.318C1123.92 311.718 1123.16 299.766 1128.59 287.725C1131.43 281.431 1135.51 275.862 1143.46 275.984C1150.3 276.087 1157.18 284.204 1158.29 292.349C1158.55 294.323 1158.33 296.358 1158.33 298.361Z" stroke="#40FDFB" stroke-width="2"/>
</svg>
